<?xml version="1.0" encoding="utf-8" standalone="yes"?>
<!DOCTYPE svg PUBLIC "-//W3C//DTD SVG 1.1//EN" "http://www.w3.org/Graphics/SVG/1.1/DTD/svg11.dtd">
<svg width="968" height="482" viewBox="0 0 968 482" style="fill:none;stroke:none;fill-rule:evenodd;clip-rule:evenodd;stroke-linecap:round;stroke-linejoin:round;stroke-miterlimit:1.5;" version="1.1" xmlns="http://www.w3.org/2000/svg" xmlns:xlink="http://www.w3.org/1999/xlink"><style id="fontImports">@import url("https://fonts.googleapis.com/css2?family=Roboto:wght@400;700&amp;display=block");</style><rect id="" x="0" y="0" width="968" height="482" style="fill: none;"></rect><g id="items" style="isolation: isolate"><g id="blend" style="mix-blend-mode:normal"><g id="g-root-tf_4mxzut1dzkidf-fill" data-item-order="999536320" transform="translate(-9, -9)"></g><g id="g-root--1.line_sy_4mxzut1dzkj5y-fill" data-item-order="999994541" transform="translate(864, 278.99609375)"></g><g id="g-root--1.vector_sy_74hqd1dzkj60-fill" data-item-order="999994545" transform="translate(21, 278.99609375)"></g><g id="g-root-9.cu-smallCircle_sy_4mxzut1dzkj5t-fill" data-item-order="999994549" transform="translate(858, 276)"></g><g id="g-root-8.cu-smallCircle_sy_4mxzut1dzkj5s-fill" data-item-order="999994553" transform="translate(762, 276)"></g><g id="g-root-7.cu-smallCircle_sy_74hqd1dzkj67-fill" data-item-order="999994557" transform="translate(666, 276)"></g><g id="g-root-6.cu-smallCircle_sy_74hqd1dzkj66-fill" data-item-order="999994561" transform="translate(570, 276)"></g><g id="g-root-5.cu-smallCircle_sy_74hqd1dzkj65-fill" data-item-order="999994565" transform="translate(474, 276)"></g><g id="g-root-4.cu-smallCircle_sy_74hqd1dzkj64-fill" data-item-order="999994569" transform="translate(378, 276)"></g><g id="g-root-3.cu-smallCircle_sy_74hqd1dzkj63-fill" data-item-order="999994573" transform="translate(282, 276)"></g><g id="g-root-2.cu-smallCircle_sy_74hqd1dzkj62-fill" data-item-order="999994577" transform="translate(186, 276)"></g><g id="g-root-1.cu-smallCircle_sy_74hqd1dzkj61-fill" data-item-order="999994581" transform="translate(90, 276)"></g><g id="g-root-1_4mxzut1dzkidq-fill" data-item-order="1000000000" transform="translate(837, 219)"></g><g id="g-root-shri_4mxzut1dzkidp-fill" data-item-order="1000000000" transform="translate(645, 219)"></g><g id="g-root-tx_checkfor_4mxzut1dzkj62-fill" data-item-order="1000000000" transform="translate(705, 351)"><g id="tx_checkfor_4mxzut1dzkj62-fill" stroke="none" fill="#484848"><g><text style="font: 20px Roboto, sans-serif; white-space: pre;" font-size="20px" font-family="Roboto, sans-serif"><tspan x="27.35" y="33.5" dominant-baseline="ideographic">Check for </tspan><tspan x="11.94" y="57.5" dominant-baseline="ideographic">Convergence</tspan></text></g></g></g><g id="g-root-3_4mxzut1dzkidn-fill" data-item-order="1000000000" transform="translate(261, 219)"></g><g id="g-root-1_4mxzut1dzkidm-fill" data-item-order="1000000000" transform="translate(69, 219)"></g><g id="g-root-tx_calculat_4mxzut1dzkidl-fill" data-item-order="1000000000" transform="translate(789, 159)"><g id="tx_calculat_4mxzut1dzkidl-fill" stroke="none" fill="#484848"><g><text style="font: 20px Roboto, sans-serif; white-space: pre;" font-size="20px" font-family="Roboto, sans-serif"><tspan x="14.32" y="33.5" dominant-baseline="ideographic">Calculate Final </tspan><tspan x="33.7" y="57.5" dominant-baseline="ideographic">Properties</tspan></text></g></g></g><g id="g-root-tx_formnewd_4mxzut1dzkidk-fill" data-item-order="1000000000" transform="translate(603, 159)"><g id="tx_formnewd_4mxzut1dzkidk-fill" stroke="none" fill="#484848"><g><text style="font: 20px Roboto, sans-serif; white-space: pre;" font-size="20px" font-family="Roboto, sans-serif"><tspan x="30.3" y="33.5" dominant-baseline="ideographic">Form New </tspan><tspan x="12.37" y="57.5" dominant-baseline="ideographic">Density Matrix</tspan></text></g></g></g><g id="g-root-tx_forminit_4mxzut1dzkidj-fill" data-item-order="1000000000" transform="translate(219, 159)"><g id="tx_forminit_4mxzut1dzkidj-fill" stroke="none" fill="#484848"><g><text style="font: 20px Roboto, sans-serif; white-space: pre;" font-size="20px" font-family="Roboto, sans-serif"><tspan x="26.02" y="33.5" dominant-baseline="ideographic">Form Initial </tspan><tspan x="12.37" y="57.5" dominant-baseline="ideographic">Density Matrix</tspan></text></g></g></g><g id="g-root-tx_inputmol_4mxzut1dzkidi-fill" data-item-order="1000000000" transform="translate(15, 159)"><g id="tx_inputmol_4mxzut1dzkidi-fill" stroke="none" fill="#484848"><g><text style="font: 20px Roboto, sans-serif; white-space: pre;" font-size="20px" font-family="Roboto, sans-serif"><tspan x="17.37" y="33.5" dominant-baseline="ideographic">Input Molecular </tspan><tspan x="43.28" y="57.5" dominant-baseline="ideographic">Geometry</tspan></text></g></g></g><g id="g-root-numb_4mxzut1dzkj5u-fill" data-item-order="1000000000" transform="translate(165, 291)"></g><g id="g-root-fler_4mxzut1dzkj5v-fill" data-item-order="1000000000" transform="translate(357, 291)"></g><g id="g-root-2_4mxzut1dzkj5w-fill" data-item-order="1000000000" transform="translate(549, 291)"></g><g id="g-root-prep_4mxzut1dzkj5x-fill" data-item-order="1000000000" transform="translate(741, 291)"></g><g id="g-root-tx_transfor_4mxzut1dzkidh-fill" data-item-order="1000000000" transform="translate(411, 135)"><g id="tx_transfor_4mxzut1dzkidh-fill" stroke="none" fill="#484848"><g><text style="font: 20px Roboto, sans-serif; white-space: pre;" font-size="20px" font-family="Roboto, sans-serif"><tspan x="15.95" y="33.5" dominant-baseline="ideographic">Transform to </tspan><tspan x="23.85" y="57.5" dominant-baseline="ideographic">Orthogonal </tspan><tspan x="49.12" y="81.5" dominant-baseline="ideographic">Basis</tspan></text></g></g></g><g id="g-root-tx_chooseba_4mxzut1dzkj5z-fill" data-item-order="1000000000" transform="translate(123, 351)"><g id="tx_chooseba_4mxzut1dzkj5z-fill" stroke="none" fill="#484848"><g><text style="font: 20px Roboto, sans-serif; white-space: pre;" font-size="20px" font-family="Roboto, sans-serif"><tspan x="12.77" y="33.5" dominant-baseline="ideographic">Choose Basis </tspan><tspan x="59.02" y="57.5" dominant-baseline="ideographic">Set</tspan></text></g></g></g><g id="g-root-tx_construc_4mxzut1dzkj60-fill" data-item-order="1000000000" transform="translate(309, 351)"><g id="tx_construc_4mxzut1dzkj60-fill" stroke="none" fill="#484848"><g><text style="font: 20px Roboto, sans-serif; white-space: pre;" font-size="20px" font-family="Roboto, sans-serif"><tspan x="13.27" y="33.5" dominant-baseline="ideographic">Construct Fock </tspan><tspan x="52.53" y="57.5" dominant-baseline="ideographic">Matrix</tspan></text></g></g></g><g id="g-root-tx_solveeig_4mxzut1dzkj61-fill" data-item-order="1000000000" transform="translate(519, 351)"><g id="tx_solveeig_4mxzut1dzkj61-fill" stroke="none" fill="#484848"><g><text style="font: 20px Roboto, sans-serif; white-space: pre;" font-size="20px" font-family="Roboto, sans-serif"><tspan x="37.38" y="33.5" dominant-baseline="ideographic">Solve </tspan><tspan x="13.54" y="57.5" dominant-baseline="ideographic">Eigenvalue </tspan><tspan x="22.38" y="81.5" dominant-baseline="ideographic">Equation</tspan></text></g></g></g><g id="g-root-tx_hartreef_4mxzut1dzkidg-fill" data-item-order="1000000000" transform="translate(303, 39)"><g id="tx_hartreef_4mxzut1dzkidg-fill" stroke="none" fill="#484848"><g><text style="font: 20px Roboto, sans-serif; white-space: pre;" font-size="20px" font-family="Roboto, sans-serif"><tspan x="15.02" y="33.5" dominant-baseline="ideographic">Hartree-Fock SCF Calculation Process</tspan></text></g></g></g><g id="g-root-righ_4mxzut1dzkido-fill" data-item-order="1000000000" transform="translate(453, 219)"></g><g id="g-root-tf_4mxzut1dzkidf-stroke" data-item-order="999536320" transform="translate(-9, -9)"></g><g id="g-root--1.line_sy_4mxzut1dzkj5y-stroke" data-item-order="999994541" transform="translate(864, 278.99609375)"><g id="-1.line_sy_4mxzut1dzkj5y-stroke" fill="none" stroke-linecap="round" stroke-linejoin="round" stroke-miterlimit="4" stroke="#484848" stroke-width="2"><g><path d="M 76 10.003906L 10 10.003906"></path><path d="M 70 16.503906L 76.5 10.003906L 70 3.503906" stroke-dasharray="none"></path></g></g></g><g id="g-root--1.vector_sy_74hqd1dzkj60-stroke" data-item-order="999994545" transform="translate(21, 278.99609375)"><g id="-1.vector_sy_74hqd1dzkj60-stroke" fill="none" stroke-linecap="round" stroke-linejoin="round" stroke-miterlimit="4" stroke="#484848" stroke-width="2"><g><path d="M 847 10L 757 10M 751 10L 661 10M 655 10L 565 10M 559 10L 469 10M 463 10L 373 10M 367 10L 277 10M 271 10L 181 10M 174.9976 10L 84.9976 10M 78.9976 10L 10 10"></path></g></g></g><g id="g-root-9.cu-smallCircle_sy_4mxzut1dzkj5t-stroke" data-item-order="999994549" transform="translate(858, 276)"><g id="9.cu-smallCircle_sy_4mxzut1dzkj5t-stroke" fill="none" stroke-linecap="round" stroke-linejoin="round" stroke-miterlimit="4" stroke="#484848" stroke-width="2"><g><path d="M 16 13C 16 14.6569 14.6569 16 13 16C 11.3431 16 10 14.6569 10 13C 10 11.3431 11.3431 10 13 10C 14.6569 10 16 11.3431 16 13Z"></path></g></g></g><g id="g-root-8.cu-smallCircle_sy_4mxzut1dzkj5s-stroke" data-item-order="999994553" transform="translate(762, 276)"><g id="8.cu-smallCircle_sy_4mxzut1dzkj5s-stroke" fill="none" stroke-linecap="round" stroke-linejoin="round" stroke-miterlimit="4" stroke="#484848" stroke-width="2"><g><path d="M 16 13C 16 14.6569 14.6569 16 13 16C 11.3431 16 10 14.6569 10 13C 10 11.3431 11.3431 10 13 10C 14.6569 10 16 11.3431 16 13Z"></path></g></g></g><g id="g-root-7.cu-smallCircle_sy_74hqd1dzkj67-stroke" data-item-order="999994557" transform="translate(666, 276)"><g id="7.cu-smallCircle_sy_74hqd1dzkj67-stroke" fill="none" stroke-linecap="round" stroke-linejoin="round" stroke-miterlimit="4" stroke="#484848" stroke-width="2"><g><path d="M 16 13C 16 14.6569 14.6569 16 13 16C 11.3431 16 10 14.6569 10 13C 10 11.3431 11.3431 10 13 10C 14.6569 10 16 11.3431 16 13Z"></path></g></g></g><g id="g-root-6.cu-smallCircle_sy_74hqd1dzkj66-stroke" data-item-order="999994561" transform="translate(570, 276)"><g id="6.cu-smallCircle_sy_74hqd1dzkj66-stroke" fill="none" stroke-linecap="round" stroke-linejoin="round" stroke-miterlimit="4" stroke="#484848" stroke-width="2"><g><path d="M 16 13C 16 14.6569 14.6569 16 13 16C 11.3431 16 10 14.6569 10 13C 10 11.3431 11.3431 10 13 10C 14.6569 10 16 11.3431 16 13Z"></path></g></g></g><g id="g-root-5.cu-smallCircle_sy_74hqd1dzkj65-stroke" data-item-order="999994565" transform="translate(474, 276)"><g id="5.cu-smallCircle_sy_74hqd1dzkj65-stroke" fill="none" stroke-linecap="round" stroke-linejoin="round" stroke-miterlimit="4" stroke="#484848" stroke-width="2"><g><path d="M 16 13C 16 14.6569 14.6569 16 13 16C 11.3431 16 10 14.6569 10 13C 10 11.3431 11.3431 10 13 10C 14.6569 10 16 11.3431 16 13Z"></path></g></g></g><g id="g-root-4.cu-smallCircle_sy_74hqd1dzkj64-stroke" data-item-order="999994569" transform="translate(378, 276)"><g id="4.cu-smallCircle_sy_74hqd1dzkj64-stroke" fill="none" stroke-linecap="round" stroke-linejoin="round" stroke-miterlimit="4" stroke="#484848" stroke-width="2"><g><path d="M 16 13C 16 14.6569 14.6569 16 13 16C 11.3431 16 10 14.6569 10 13C 10 11.3431 11.3431 10 13 10C 14.6569 10 16 11.3431 16 13Z"></path></g></g></g><g id="g-root-3.cu-smallCircle_sy_74hqd1dzkj63-stroke" data-item-order="999994573" transform="translate(282, 276)"><g id="3.cu-smallCircle_sy_74hqd1dzkj63-stroke" fill="none" stroke-linecap="round" stroke-linejoin="round" stroke-miterlimit="4" stroke="#484848" stroke-width="2"><g><path d="M 16 13C 16 14.6569 14.6569 16 13 16C 11.3431 16 10 14.6569 10 13C 10 11.3431 11.3431 10 13 10C 14.6569 10 16 11.3431 16 13Z"></path></g></g></g><g id="g-root-2.cu-smallCircle_sy_74hqd1dzkj62-stroke" data-item-order="999994577" transform="translate(186, 276)"><g id="2.cu-smallCircle_sy_74hqd1dzkj62-stroke" fill="none" stroke-linecap="round" stroke-linejoin="round" stroke-miterlimit="4" stroke="#484848" stroke-width="2"><g><path d="M 16 13C 16 14.6569 14.6569 16 13 16C 11.3431 16 10 14.6569 10 13C 10 11.3431 11.3431 10 13 10C 14.6569 10 16 11.3431 16 13Z"></path></g></g></g><g id="g-root-1.cu-smallCircle_sy_74hqd1dzkj61-stroke" data-item-order="999994581" transform="translate(90, 276)"><g id="1.cu-smallCircle_sy_74hqd1dzkj61-stroke" fill="none" stroke-linecap="round" stroke-linejoin="round" stroke-miterlimit="4" stroke="#484848" stroke-width="2"><g><path d="M 16 13C 16 14.6569 14.6569 16 13 16C 11.3431 16 10 14.6569 10 13C 10 11.3431 11.3431 10 13 10C 14.6569 10 16 11.3431 16 13Z"></path></g></g></g><g id="g-root-1_4mxzut1dzkidq-stroke" data-item-order="1000000000" transform="translate(837, 219)"><g id="1_4mxzut1dzkidq-stroke" fill="none" stroke-linecap="round" stroke-linejoin="round" stroke-miterlimit="4" stroke="#92bd39" stroke-width="2"><g><path d="M 18.571428 11.714286L 49.428574 11.714286C 49.428574 11.714286 52.857143 11.714286 52.857143 15.142858L 52.857143 52.857143C 52.857143 52.857143 52.857143 56.285713 49.428574 56.285713L 18.571428 56.285713C 18.571428 56.285713 15.142858 56.285713 15.142858 52.857143L 15.142858 15.142858C 15.142858 15.142858 15.142858 11.714286 18.571428 11.714286M 15.142858 28.857143L 52.857143 28.857143M 44.285713 20.285715L 40.857143 20.285715"></path></g></g></g><g id="g-root-shri_4mxzut1dzkidp-stroke" data-item-order="1000000000" transform="translate(645, 219)"><g id="shri_4mxzut1dzkidp-stroke" fill="none" stroke-linecap="round" stroke-linejoin="round" stroke-miterlimit="4" stroke="#1eabda" stroke-width="2"><g><path d="M 28.440001 31.1L 46.439999 31.1C 46.443455 23.398548 41.269096 16.656826 33.828701 14.668629C 26.388309 12.680431 18.540771 15.942483 14.702161 22.619118C 10.863551 29.295752 11.992896 37.718899 17.454674 43.148571C 22.916454 48.578243 31.346113 49.657906 38 45.779999ZM 46.439999 31.1L 50.439999 31.1M 50.439999 31.1C 50.440002 32.756855 51.783146 34.099998 53.440002 34.099998C 55.096855 34.099998 56.440002 32.756855 56.440002 31.1C 56.440002 29.443146 55.096855 28.1 53.440002 28.1C 51.783146 28.1 50.440002 29.443146 50.440002 31.1M 38.02 45.779999L 40.040001 49.240002M 44.540001 51.82C 44.540001 53.476856 43.196854 54.82 41.540001 54.82C 39.883148 54.82 38.540001 53.476856 38.540001 51.82C 38.540001 50.163147 39.883148 48.82 41.540001 48.82C 43.196854 48.82 44.540001 50.163147 44.540001 51.82ZM 44.439999 11.1C 47.928383 13.683547 50.685211 17.129581 52.440002 21.1M 44.439999 16.1L 44.439999 11.1L 49.439999 11.1M 22.52 55.119999C 18.361628 53.926662 14.584822 51.672985 11.559999 48.579998M 20.74 50.459999L 22.52 55.119999L 17.84 56.900002"></path></g></g></g><g id="g-root-tx_checkfor_4mxzut1dzkj62-stroke" data-item-order="1000000000" transform="translate(705, 351)"></g><g id="g-root-3_4mxzut1dzkidn-stroke" data-item-order="1000000000" transform="translate(261, 219)"><g id="3_4mxzut1dzkidn-stroke" fill="none" stroke-linecap="round" stroke-linejoin="round" stroke-miterlimit="4" stroke="#e0cb15" stroke-width="2"><g><path d="M 36 39L 55 39C 56.104568 39 57 38.104568 57 37L 57 13C 57 11.895431 56.104568 11 55 11L 31 11M 39.604 27L 47 27M 38.127998 31.030001L 42.382 19.667999C 42.52861 19.278154 42.901497 19.02 43.318001 19.02C 43.734501 19.02 44.107391 19.278154 44.254002 19.667999L 48.507999 31.030001M 15 18C 15 21.865993 18.134007 25 22 25C 25.865993 25 29 21.865993 29 18C 29 14.134007 25.865993 11 22 11C 18.134007 11 15 14.134007 15 18ZM 15.094 19.153999C 17.749018 19.124155 20.263666 17.95677 22 15.948C 23.736818 17.954229 26.250574 19.119354 28.903999 19.147999M 26.434 29.43L 22 36.412003L 17.604 29.402M 22 28C 25.520664 27.996502 28.582836 30.41148 29.4 33.835999L 33 47L 27.086 47L 24.978001 57L 18.978001 57L 16.869999 47L 11 47L 14.610001 33.835999C 15.426298 30.415115 18.48307 28.001133 22 28Z"></path></g></g></g><g id="g-root-1_4mxzut1dzkidm-stroke" data-item-order="1000000000" transform="translate(69, 219)"><g id="1_4mxzut1dzkidm-stroke" fill="none" stroke-linecap="round" stroke-linejoin="round" stroke-miterlimit="4" stroke="#4e88e7" stroke-width="2"><g><path d="M 10 10M 22 29.5L 34 38.5L 46 29.5M 34 38.5L 34 48.5M 22 29.5C 21.281525 25.867592 22.201668 22.103209 24.514778 19.211823C 26.827887 16.320435 30.298473 14.596407 34 14.5C 37.699211 14.602617 41.165733 16.328289 43.477501 19.217999C 45.789268 22.107708 46.711903 25.868486 45.999996 29.499998M 46 29.5C 51.806698 30.538157 56.02597 35.601284 56 41.5C 56 48.127419 50.627419 53.5 44 53.5C 40.026203 53.675251 36.24408 51.784187 34 48.5M 34 48.5C 31.735155 51.7603 27.967146 53.644302 24 53.499996C 17.372583 53.5 12 48.127419 12 41.5C 11.975666 35.601875 16.194176 30.539661 22 29.5"></path></g></g></g><g id="g-root-tx_calculat_4mxzut1dzkidl-stroke" data-item-order="1000000000" transform="translate(789, 159)"></g><g id="g-root-tx_formnewd_4mxzut1dzkidk-stroke" data-item-order="1000000000" transform="translate(603, 159)"></g><g id="g-root-tx_forminit_4mxzut1dzkidj-stroke" data-item-order="1000000000" transform="translate(219, 159)"></g><g id="g-root-tx_inputmol_4mxzut1dzkidi-stroke" data-item-order="1000000000" transform="translate(15, 159)"></g><g id="g-root-numb_4mxzut1dzkj5u-stroke" data-item-order="1000000000" transform="translate(165, 291)"><g id="numb_4mxzut1dzkj5u-stroke" fill="none" stroke-linecap="round" stroke-linejoin="round" stroke-miterlimit="4" stroke="#3cc583" stroke-width="2"><g><path d="M 21 18.996L 21 48.995998M 15 42.995998L 21 48.995998L 27 42.995998M 42 26.996L 52 26.996M 47 27L 47 12C 46.999454 11.616013 46.779083 11.266251 46.432949 11.100004C 46.086815 10.933758 45.676056 10.980392 45.375999 11.22L 42 13.916M 41 45.995998C 41 48.757423 43.238575 50.996002 46 50.996002C 48.761425 50.996002 51 48.757423 51 45.996002C 51 43.234577 48.761425 40.996002 46 40.996002C 43.238575 40.996002 41 43.234577 41 45.996002ZM 51 46L 51 51C 51 54.313709 48.313709 57 45 57L 44 57"></path></g></g></g><g id="g-root-fler_4mxzut1dzkj5v-stroke" data-item-order="1000000000" transform="translate(357, 291)"><g id="fler_4mxzut1dzkj5v-stroke" fill="none" stroke-linecap="round" stroke-linejoin="round" stroke-miterlimit="4" stroke="#de8431" stroke-width="2"><g><path d="M 13 11L 55 11C 55 11 57 11 57 13L 57 55C 57 55 57 57 55 57L 13 57C 13 57 11 57 11 55L 11 13C 11 13 11 11 13 11M 24 48L 44 48M 26 43L 26 25L 35 25M 26.125999 33.25L 33.5 33.25M 39 25L 39 40C 39 41.656853 40.343147 43 42 43"></path></g></g></g><g id="g-root-2_4mxzut1dzkj5w-stroke" data-item-order="1000000000" transform="translate(549, 291)"><g id="2_4mxzut1dzkj5w-stroke" fill="none" stroke-linecap="round" stroke-linejoin="round" stroke-miterlimit="4" stroke="#de58a9" stroke-width="2"><g><path d="M 27.986 26.986L 56.408001 26.986M 27.986 40.014L 56.408001 40.014M 12.592 12.776L 12.592 44.75M 11.592 54.223999C 11.592 54.776283 12.039715 55.223999 12.592 55.223999C 13.144285 55.223999 13.592 54.776283 13.592 54.223999C 13.592 53.671715 13.144285 53.223999 12.592 53.223999C 12.039715 53.223999 11.592 53.671715 11.592 54.223999"></path></g></g></g><g id="g-root-prep_4mxzut1dzkj5x-stroke" data-item-order="1000000000" transform="translate(741, 291)"><g id="prep_4mxzut1dzkj5x-stroke" fill="none" stroke-linecap="round" stroke-linejoin="round" stroke-miterlimit="4" stroke="#7f64ea" stroke-width="2"><g><path d="M 44.778 52L 23.222 52L 11 34.048L 23.222 16L 44.778 16L 57 34.048L 44.778 52Z"></path></g></g></g><g id="g-root-tx_transfor_4mxzut1dzkidh-stroke" data-item-order="1000000000" transform="translate(411, 135)"></g><g id="g-root-tx_chooseba_4mxzut1dzkj5z-stroke" data-item-order="1000000000" transform="translate(123, 351)"></g><g id="g-root-tx_construc_4mxzut1dzkj60-stroke" data-item-order="1000000000" transform="translate(309, 351)"></g><g id="g-root-tx_solveeig_4mxzut1dzkj61-stroke" data-item-order="1000000000" transform="translate(519, 351)"></g><g id="g-root-tx_hartreef_4mxzut1dzkidg-stroke" data-item-order="1000000000" transform="translate(303, 39)"></g><g id="g-root-righ_4mxzut1dzkido-stroke" data-item-order="1000000000" transform="translate(453, 219)"><g id="righ_4mxzut1dzkido-stroke" fill="none" stroke-linecap="round" stroke-linejoin="round" stroke-miterlimit="4" stroke="#e55753" stroke-width="2"><g><path d="M 57 28.5L 31 28.5L 11 54.5L 37 54.5L 57 28.5ZM 21 18.5L 47 18.5M 42 13.5L 47 18.5L 42 23.5M 13 28.5L 11 28.5L 11 30.5M 11 54.5L 11 52.5M 11 34.5L 11 36.5M 11 40.5L 11 42.5M 11 46.5L 11 48.5M 37 28.5L 37 30.5M 37 54.5L 37 52.5M 37 34.5L 37 36.5M 37 40.5L 37 42.5M 37 46.5L 37 48.5M 17 28.5L 19 28.5M 23 28.5L 25 28.5M 29 28.5L 31 28.5"></path></g></g></g></g></g></svg>