<?xml version="1.0" encoding="utf-8" standalone="yes"?>
<!DOCTYPE svg PUBLIC "-//W3C//DTD SVG 1.1//EN" "http://www.w3.org/Graphics/SVG/1.1/DTD/svg11.dtd">
<svg width="950" height="446" viewBox="0 0 950 446" style="fill:none;stroke:none;fill-rule:evenodd;clip-rule:evenodd;stroke-linecap:round;stroke-linejoin:round;stroke-miterlimit:1.5;" version="1.1" xmlns="http://www.w3.org/2000/svg" xmlns:xlink="http://www.w3.org/1999/xlink"><style id="fontImports">@import url("https://fonts.googleapis.com/css2?family=Roboto:wght@400;700&amp;display=block");</style><rect id="" x="0" y="0" width="950" height="446" style="fill: #ffffff;"></rect><g id="items" style="isolation: isolate"><g id="blend" style="mix-blend-mode:normal"><g id="g-root-tf_144urat1ejqrr6-fill" data-item-order="-420912" transform="translate(-9, -9)"><g id="tf_144urat1ejqrr6-fill" stroke="none" fill="#ffffff"><g><path d="M 10 10L 958 10L 958 454L 10 454Z"></path></g></g></g><g id="g-root-ro_1lt0ed11ejnwnb-fill" data-item-order="-22968" transform="translate(423, 51)"><g id="ro_1lt0ed11ejnwnb-fill" stroke="none" fill="#f5f5f5"><g><path d="M 34 10L 118 10C 118 10 142 10 142 34L 142 160C 142 160 142 184 118 184L 34 184C 34 184 10 184 10 160L 10 34C 10 34 10 10 34 10"></path></g></g></g><g id="g-root-ro_1cymcad1ejpczx-fill" data-item-order="-16848" transform="translate(603, 39)"><g id="ro_1cymcad1ejpczx-fill" stroke="none" fill="#faf0ff"><g><path d="M 22 10L 310 10C 310 10 322 10 322 22L 322 52C 322 52 322 64 310 64L 22 64C 22 64 10 64 10 52L 10 22C 10 22 10 10 22 10"></path></g></g></g><g id="g-root-ro_1hfosl11ejqsjl-fill" data-item-order="-15552" transform="translate(87, 39)"><g id="ro_1hfosl11ejqsjl-fill" stroke="none" fill="#edf4ff"><g><path d="M 22 10L 286 10C 286 10 298 10 298 22L 298 52C 298 52 298 64 286 64L 22 64C 22 64 10 64 10 52L 10 22C 10 22 10 10 22 10"></path></g></g></g><g id="g-root-ro_1q87fed1ejqqkg-fill" data-item-order="-13608" transform="translate(363, 261)"><g id="ro_1q87fed1ejqqkg-fill" stroke="none" fill="#fffbda"><g><path d="M 22 10L 250 10C 250 10 262 10 262 22L 262 52C 262 52 262 64 250 64L 22 64C 22 64 10 64 10 52L 10 22C 10 22 10 10 22 10"></path></g></g></g><g id="g-root-tx_basistra_1cwqx111ejqs5h-fill" data-item-order="0" transform="translate(411, 327)"><g id="tx_basistra_1cwqx111ejqs5h-fill" stroke="none" fill="#484848"><g><text style="font: 20px Roboto, sans-serif; white-space: pre;" font-size="20px" font-family="Roboto, sans-serif"><tspan x="16.73" y="33.5" dominant-baseline="ideographic">Basis Transformation</tspan></text></g></g></g><g id="g-root-cu_144urat1ejqrr4-fill" data-item-order="0" transform="translate(387, 315)"></g><g id="g-root-cu_18ko9f91ejqqyt-fill" data-item-order="0" transform="translate(387, 315)"></g><g id="g-root-cu_1hfosl11ejqsjm-fill" data-item-order="0" transform="translate(375, 66)"></g><g id="g-root-tx_represen_1cwqx111ejqs5i-fill" data-item-order="0" transform="translate(411, 363)"><g id="tx_represen_1cwqx111ejqs5i-fill" stroke="none" fill="#484848"><g><text style="font: 20px Roboto, sans-serif; white-space: pre;" font-size="20px" font-family="Roboto, sans-serif"><tspan x="13.18" y="33.5" dominant-baseline="ideographic">Representation Accuracy</tspan></text></g></g></g><g id="g-root-cu_18ko9f91ejqq6l-fill" data-item-order="0" transform="translate(555, 66)"></g><g id="g-root-cu_1d0hrjp1ejqq68-fill" data-item-order="0" transform="translate(489, 225)"></g><g id="g-root-tx_constrai_1hckf5h1ejqrd8-fill" data-item-order="0" transform="translate(651, 141)"><g id="tx_constrai_1hckf5h1ejqrd8-fill" stroke="none" fill="#484848"><g><text style="font: 20px Roboto, sans-serif; white-space: pre;" font-size="20px" font-family="Roboto, sans-serif"><tspan x="16.25" y="33.5" dominant-baseline="ideographic">Constraint Satisfaction</tspan></text></g></g></g><g id="g-root-tx_extended_1q87fed1ejqqkh-fill" data-item-order="0" transform="translate(99, 105)"><g id="tx_extended_1q87fed1ejqqkh-fill" stroke="none" fill="#484848"><g><text style="font: 20px Roboto, sans-serif; white-space: pre;" font-size="20px" font-family="Roboto, sans-serif"><tspan x="16.7" y="33.5" dominant-baseline="ideographic">Extended Hückel Theory</tspan></text></g></g></g><g id="g-root-cu_1d0hrjp1ejqq6b-fill" data-item-order="0" transform="translate(333, 93)"></g><g id="g-root-cu_144urat1ejqqz2-fill" data-item-order="0" transform="translate(333, 93)"></g><g id="g-root-tx_superpos_1hckf5h1ejqrd6-fill" data-item-order="0" transform="translate(15, 141)"><g id="tx_superpos_1hckf5h1ejqrd6-fill" stroke="none" fill="#484848"><g><text style="font: 20px Roboto, sans-serif; white-space: pre;" font-size="20px" font-family="Roboto, sans-serif"><tspan x="15.01" y="33.5" dominant-baseline="ideographic">Superposition of Atomic Densities</tspan></text></g></g></g><g id="g-root-tx_electron_1hckf5h1ejqrd7-fill" data-item-order="0" transform="translate(651, 105)"><g id="tx_electron_1hckf5h1ejqrd7-fill" stroke="none" fill="#484848"><g><text style="font: 20px Roboto, sans-serif; white-space: pre;" font-size="20px" font-family="Roboto, sans-serif"><tspan x="17.74" y="33.5" dominant-baseline="ideographic">Electron Count Verification</tspan></text></g></g></g><g id="g-root-cu_18ko9f91ejqqyo-fill" data-item-order="0" transform="translate(627, 93)"></g><g id="g-root-cu_18ko9f91ejqqyr-fill" data-item-order="0" transform="translate(627, 93)"></g><g id="g-root-tx_initiald_1q87fed1ejnz0t-fill" data-item-order="2000000000" transform="translate(447, 129)"><g id="tx_initiald_1q87fed1ejnz0t-fill" stroke="none" fill="#484848"><g><text style="font: 20px Roboto, sans-serif; white-space: pre;" font-size="20px" font-family="Roboto, sans-serif"><tspan x="25.3" y="33.5" dominant-baseline="ideographic">Initial </tspan><tspan x="16.57" y="57.5" dominant-baseline="ideographic">Density </tspan><tspan x="21.32" y="81.5" dominant-baseline="ideographic">Matrix</tspan></text></g></g></g><g id="g-root-tx_electron_1lu9cj91ejpc77-fill" data-item-order="2000000000" transform="translate(651, 54)"><g id="tx_electron_1lu9cj91ejpc77-fill" stroke="none" fill="#ba5de5"><g><text style="font: 20px Roboto, sans-serif; white-space: pre;" font-size="20px" font-family="Roboto, sans-serif"><tspan x="16.98" y="33.5" dominant-baseline="ideographic">Electron Count Constraints</tspan></text></g></g></g><g id="g-root-proc_1uo0xit1ejqps7-fill" data-item-order="2000000000" transform="translate(375, 273)"></g><g id="g-root-axis_1q87fed1ejnz0u-fill" data-item-order="2000000000" transform="translate(465, 75)"></g><g id="g-root-tx_basisrep_23wl11ejqscu-fill" data-item-order="2000000000" transform="translate(411, 276)"><g id="tx_basisrep_23wl11ejqscu-fill" stroke="none" fill="#e0cb15"><g><text style="font: 20px Roboto, sans-serif; white-space: pre;" font-size="20px" font-family="Roboto, sans-serif"><tspan x="11.87" y="33.5" dominant-baseline="ideographic">Basis Representation</tspan></text></g></g></g><g id="g-root-nega_1cymcad1ejpczw-fill" data-item-order="2000000000" transform="translate(615, 51)"></g><g id="g-root-face_1lviaph1ejqrrc-fill" data-item-order="2000000000" transform="translate(333, 51)"></g><g id="g-root-tx_methodsf_1lviaph1ejqrrb-fill" data-item-order="2000000000" transform="translate(99, 54)"><g id="tx_methodsf_1lviaph1ejqrrb-fill" stroke="none" fill="#4e88e7"><g><text style="font: 20px Roboto, sans-serif; white-space: pre;" font-size="20px" font-family="Roboto, sans-serif"><tspan x="12.55" y="33.5" dominant-baseline="ideographic">Methods for Initial Guess</tspan></text></g></g></g><g id="g-root-tf_144urat1ejqrr6-stroke" data-item-order="-420912" transform="translate(-9, -9)"></g><g id="g-root-ro_1lt0ed11ejnwnb-stroke" data-item-order="-22968" transform="translate(423, 51)"><g id="ro_1lt0ed11ejnwnb-stroke" fill="none" stroke-linecap="round" stroke-linejoin="round" stroke-miterlimit="4" stroke="#484848" stroke-width="2"><g><path d="M 34 10L 118 10C 118 10 142 10 142 34L 142 160C 142 160 142 184 118 184L 34 184C 34 184 10 184 10 160L 10 34C 10 34 10 10 34 10"></path></g></g></g><g id="g-root-ro_1cymcad1ejpczx-stroke" data-item-order="-16848" transform="translate(603, 39)"><g id="ro_1cymcad1ejpczx-stroke" fill="none" stroke-linecap="round" stroke-linejoin="round" stroke-miterlimit="4" stroke="#ba5de5" stroke-width="2"><g><path d="M 22 10L 310 10C 310 10 322 10 322 22L 322 52C 322 52 322 64 310 64L 22 64C 22 64 10 64 10 52L 10 22C 10 22 10 10 22 10"></path></g></g></g><g id="g-root-ro_1hfosl11ejqsjl-stroke" data-item-order="-15552" transform="translate(87, 39)"><g id="ro_1hfosl11ejqsjl-stroke" fill="none" stroke-linecap="round" stroke-linejoin="round" stroke-miterlimit="4" stroke="#4e88e7" stroke-width="2"><g><path d="M 22 10L 286 10C 286 10 298 10 298 22L 298 52C 298 52 298 64 286 64L 22 64C 22 64 10 64 10 52L 10 22C 10 22 10 10 22 10"></path></g></g></g><g id="g-root-ro_1q87fed1ejqqkg-stroke" data-item-order="-13608" transform="translate(363, 261)"><g id="ro_1q87fed1ejqqkg-stroke" fill="none" stroke-linecap="round" stroke-linejoin="round" stroke-miterlimit="4" stroke="#e0cb15" stroke-width="2"><g><path d="M 22 10L 250 10C 250 10 262 10 262 22L 262 52C 262 52 262 64 250 64L 22 64C 22 64 10 64 10 52L 10 22C 10 22 10 10 22 10"></path></g></g></g><g id="g-root-tx_basistra_1cwqx111ejqs5h-stroke" data-item-order="0" transform="translate(411, 327)"></g><g id="g-root-cu_144urat1ejqrr4-stroke" data-item-order="0" transform="translate(387, 315)"><g id="cu_144urat1ejqrr4-stroke" fill="none" stroke-linecap="round" stroke-linejoin="round" stroke-miterlimit="4" stroke="#969696" stroke-width="2" stroke-dasharray="5.0, 7.0"><g><path d="M 10 10L 10 17.5L 10 58C 10.000002 64.627417 15.372585 70 22.000002 69.999999L 22.1 70L 28 70"></path></g></g></g><g id="g-root-cu_18ko9f91ejqqyt-stroke" data-item-order="0" transform="translate(387, 315)"><g id="cu_18ko9f91ejqqyt-stroke" fill="none" stroke-linecap="round" stroke-linejoin="round" stroke-miterlimit="4" stroke="#969696" stroke-width="2" stroke-dasharray="5.0, 7.0"><g><path d="M 10 10L 10 22L 10 34L 19 34L 28 34"></path></g></g></g><g id="g-root-cu_1hfosl11ejqsjm-stroke" data-item-order="0" transform="translate(375, 66)"><g id="cu_1hfosl11ejqsjm-stroke" fill="none" stroke-linecap="round" stroke-linejoin="round" stroke-miterlimit="4" stroke="#969696" stroke-width="2" stroke-dasharray="5.0, 7.0"><g><path d="M 58 53L 55 53L 54.9 53C 43.357252 53.000001 34.000002 43.642752 34.000002 32.1L 34 32L 34 30.9C 33.999998 19.357248 24.64275 10 13.1 10L 13 10L 10 10"></path></g></g></g><g id="g-root-tx_represen_1cwqx111ejqs5i-stroke" data-item-order="0" transform="translate(411, 363)"></g><g id="g-root-cu_18ko9f91ejqq6l-stroke" data-item-order="0" transform="translate(555, 66)"><g id="cu_18ko9f91ejqq6l-stroke" fill="none" stroke-linecap="round" stroke-linejoin="round" stroke-miterlimit="4" stroke="#969696" stroke-width="2" stroke-dasharray="5.0, 7.0"><g><path d="M 10 53L 13 53L 13.1 53C 24.642753 52.999998 34.000001 43.642749 34 32.099998L 34 32L 34 30.9C 33.999999 19.357249 43.357248 10.000001 54.899999 10.000002L 55 10L 58 10"></path></g></g></g><g id="g-root-cu_1d0hrjp1ejqq68-stroke" data-item-order="0" transform="translate(489, 225)"><g id="cu_1d0hrjp1ejqq68-stroke" fill="none" stroke-linecap="round" stroke-linejoin="round" stroke-miterlimit="4" stroke="#969696" stroke-width="2" stroke-dasharray="5.0, 7.0"><g><path d="M 10 10L 10 28L 10 46"></path></g></g></g><g id="g-root-tx_constrai_1hckf5h1ejqrd8-stroke" data-item-order="0" transform="translate(651, 141)"></g><g id="g-root-tx_extended_1q87fed1ejqqkh-stroke" data-item-order="0" transform="translate(99, 105)"></g><g id="g-root-cu_1d0hrjp1ejqq6b-stroke" data-item-order="0" transform="translate(333, 93)"><g id="cu_1d0hrjp1ejqq6b-stroke" fill="none" stroke-linecap="round" stroke-linejoin="round" stroke-miterlimit="4" stroke="#969696" stroke-width="2" stroke-dasharray="5.0, 7.0"><g><path d="M 28 10L 28 22L 28 34L 19 34L 10 34"></path></g></g></g><g id="g-root-cu_144urat1ejqqz2-stroke" data-item-order="0" transform="translate(333, 93)"><g id="cu_144urat1ejqqz2-stroke" fill="none" stroke-linecap="round" stroke-linejoin="round" stroke-miterlimit="4" stroke="#969696" stroke-width="2" stroke-dasharray="5.0, 7.0"><g><path d="M 28 10L 28 17.5L 28 58C 27.999999 64.627415 22.627416 69.999998 16 69.999998L 15.9 70L 10 70"></path></g></g></g><g id="g-root-tx_superpos_1hckf5h1ejqrd6-stroke" data-item-order="0" transform="translate(15, 141)"></g><g id="g-root-tx_electron_1hckf5h1ejqrd7-stroke" data-item-order="0" transform="translate(651, 105)"></g><g id="g-root-cu_18ko9f91ejqqyo-stroke" data-item-order="0" transform="translate(627, 93)"><g id="cu_18ko9f91ejqqyo-stroke" fill="none" stroke-linecap="round" stroke-linejoin="round" stroke-miterlimit="4" stroke="#969696" stroke-width="2" stroke-dasharray="5.0, 7.0"><g><path d="M 10 10L 10 22L 10 34L 19 34L 28 34"></path></g></g></g><g id="g-root-cu_18ko9f91ejqqyr-stroke" data-item-order="0" transform="translate(627, 93)"><g id="cu_18ko9f91ejqqyr-stroke" fill="none" stroke-linecap="round" stroke-linejoin="round" stroke-miterlimit="4" stroke="#969696" stroke-width="2" stroke-dasharray="5.0, 7.0"><g><path d="M 10 10L 10 17.5L 10 58C 10.000002 64.627417 15.372585 70 22.000002 69.999999L 22.1 70L 28 70"></path></g></g></g><g id="g-root-tx_initiald_1q87fed1ejnz0t-stroke" data-item-order="2000000000" transform="translate(447, 129)"></g><g id="g-root-tx_electron_1lu9cj91ejpc77-stroke" data-item-order="2000000000" transform="translate(651, 54)"></g><g id="g-root-proc_1uo0xit1ejqps7-stroke" data-item-order="2000000000" transform="translate(375, 273)"><g id="proc_1uo0xit1ejqps7-stroke" fill="none" stroke-linecap="round" stroke-linejoin="round" stroke-miterlimit="4" stroke="#e0cb15" stroke-width="2"><g><path d="M 25 10.625L 30 15.625M 30 10.625L 25 15.625M 33.75 23.4375C 33.75 24.990801 35.009197 26.25 36.5625 26.25C 38.115803 26.25 39.375 24.990801 39.375 23.4375C 39.375 21.884199 38.115803 20.625 36.5625 20.625C 35.009197 20.625 33.75 21.884199 33.75 23.4375ZM 29.375 22.72875C 31.099432 18.177856 34.766998 14.635447 39.375 13.07M 35.627502 12.295L 39.375 13.07L 37.873749 16.3375M 13.125 15C 13.125 17.416246 15.083755 19.375 17.5 19.375C 19.916246 19.375 21.875 17.416246 21.875 15C 21.875 12.583755 19.916246 10.625 17.5 10.625C 15.083755 10.625 13.125 12.583755 13.125 15ZM 13.18375 15.721251C 14.843136 15.702597 16.414791 14.97298 17.5 13.7175C 18.585512 14.971394 20.156609 15.699595 21.814999 15.7175M 20.27125 22.143749L 17.5 26.5075L 14.752501 22.126251M 17.5 21.25C 19.700417 21.247814 21.614273 22.757175 22.125 24.897501L 24.375 33.125L 20.678751 33.125L 19.36125 39.375L 15.61125 39.375L 14.29375 33.125L 10.625 33.125L 12.88125 24.897501C 13.391436 22.759447 15.301919 21.250708 17.5 21.25Z"></path></g></g></g><g id="g-root-axis_1q87fed1ejnz0u-stroke" data-item-order="2000000000" transform="translate(465, 75)"><g id="axis_1q87fed1ejnz0u-stroke" fill="none" stroke-linecap="round" stroke-linejoin="round" stroke-miterlimit="4" stroke="#484848" stroke-width="2"><g><path d="M 12 49L 56 49M 34 57L 34 11M 51 44L 56 49L 51 54M 29 16L 34 11L 39 16M 45 21L 50 16L 55 21M 13 21L 18 16L 23 21M 17 54L 12 49L 17 44M 18 16C 18 16 22 49 34 49C 46 49 50 16 50 16M 32 21L 36 21M 32 31L 36 31M 32 41L 36 41"></path></g></g></g><g id="g-root-tx_basisrep_23wl11ejqscu-stroke" data-item-order="2000000000" transform="translate(411, 276)"></g><g id="g-root-nega_1cymcad1ejpczw-stroke" data-item-order="2000000000" transform="translate(615, 51)"><g id="nega_1cymcad1ejpczw-stroke" fill="none" stroke-linecap="round" stroke-linejoin="round" stroke-miterlimit="4" stroke="#ba5de5" stroke-width="2"><g><path d="M 37.799999 19.96875C 40.154099 25.96327 38.027 32.788479 32.684074 36.384197C 27.341148 39.979919 20.217339 39.380447 15.550455 34.942402C 10.883573 30.504356 9.926995 23.419655 13.249774 17.902843C 16.572552 12.386034 23.282291 9.918758 29.387501 11.96875M 18.75 25C 18.75 28.45178 21.548222 31.25 25 31.25C 28.45178 31.25 31.25 28.45178 31.25 25C 31.25 21.548222 28.45178 18.75 25 18.75C 21.548222 18.75 18.75 21.548222 18.75 25M 21.875 25L 28.125 25M 25 21.875L 25 28.125M 31.25 15C 31.25 16.725889 32.649109 18.125 34.375 18.125C 36.100891 18.125 37.5 16.725889 37.5 15C 37.5 13.27411 36.100891 11.875 34.375 11.875C 32.649109 11.875 31.25 13.27411 31.25 15M 33.125 15L 35.494999 15"></path></g></g></g><g id="g-root-face_1lviaph1ejqrrc-stroke" data-item-order="2000000000" transform="translate(333, 51)"><g id="face_1lviaph1ejqrrc-stroke" fill="none" stroke-linecap="round" stroke-linejoin="round" stroke-miterlimit="4" stroke="#4e88e7" stroke-width="2"><g><path d="M 25.25 22.3675C 24 21.1175 21.5 20.4925 20.25 21.7425M 12.875 24.8675C 12.75 24.3675 12.75 23.8675 12.75 23.2425C 12.75 16.4925 18.25 10.9925 25 10.9925C 31.75 10.9925 37.25 16.4925 37.25 23.2425C 37.25 27.7425 34.875 31.6175 31.25 33.7425M 22.6875 38.25C 25.1875 37.25 24.71875 35.046249 24.21875 33.046249L 28.19875 31.505001C 29.121367 31.147957 29.603865 30.131912 29.297501 29.19125L 29.297501 29.19125C 29.139063 28.704741 28.787453 28.304836 28.325226 28.085424C 27.862997 27.866014 27.33086 27.846422 26.85375 28.031252L 19.53125 30.86875C 18.90625 31.118752 18.15625 30.618752 18.15625 29.99375L 18.1075 28.810001C 18.087532 28.327705 17.868391 27.875301 17.502327 27.560652C 17.136261 27.246 16.656075 27.0973 16.17625 27.150002L 16.17625 27.15C 15.29355 27.247471 14.625369 27.993185 14.625 28.881252L 14.625 33.993752C 14.625 37.243752 17.625 39.618752 20.75 38.868748C 20.75 38.868748 22.0625 38.5 22.6875 38.25ZM 19.09375 17.3675C 18.834867 17.3675 18.625 17.157635 18.625 16.89875C 18.625 16.639866 18.834867 16.43 19.09375 16.43M 19.09375 17.3675C 19.352634 17.3675 19.5625 17.157635 19.5625 16.89875C 19.5625 16.639866 19.352634 16.43 19.09375 16.43M 25.75 17.3675C 25.491117 17.3675 25.28125 17.157635 25.28125 16.89875C 25.28125 16.639866 25.491117 16.43 25.75 16.43M 25.75 17.3675C 26.008884 17.3675 26.21875 17.157635 26.21875 16.89875C 26.21875 16.639866 26.008884 16.43 25.75 16.43"></path></g></g></g><g id="g-root-tx_methodsf_1lviaph1ejqrrb-stroke" data-item-order="2000000000" transform="translate(99, 54)"></g></g></g></svg>