<?xml version="1.0" encoding="utf-8" standalone="yes"?>
<!DOCTYPE svg PUBLIC "-//W3C//DTD SVG 1.1//EN" "http://www.w3.org/Graphics/SVG/1.1/DTD/svg11.dtd">
<svg width="782" height="374" viewBox="0 0 782 374" style="fill:none;stroke:none;fill-rule:evenodd;clip-rule:evenodd;stroke-linecap:round;stroke-linejoin:round;stroke-miterlimit:1.5;" version="1.1" xmlns="http://www.w3.org/2000/svg" xmlns:xlink="http://www.w3.org/1999/xlink"><style id="fontImports">@import url("https://fonts.googleapis.com/css2?family=Roboto:wght@400;700&amp;display=block");</style><rect id="" x="0" y="0" width="782" height="374" style="fill: #ffffff;"></rect><g id="items" style="isolation: isolate"><g id="blend" style="mix-blend-mode:normal"><g id="g-root-tf_1lvizzp1dzex3f-fill" data-item-order="-290160" transform="translate(-9, -9)"><g id="tf_1lvizzp1dzex3f-fill" stroke="none" fill="#ffffff"><g><path d="M 10 10L 790 10L 790 382L 10 382Z"></path></g></g></g><g id="g-root-ro_dl2q451dzsy6f-fill" data-item-order="-27144" transform="translate(315, 90)"><g id="ro_dl2q451dzsy6f-fill" stroke="none" fill="#f5f5f5"><g><path d="M 34 10L 142 10C 142 10 166 10 166 34L 166 160C 166 160 166 184 142 184L 34 184C 34 184 10 184 10 160L 10 34C 10 34 10 10 34 10"></path></g></g></g><g id="g-root-ro_1q9h2ut1dzewhz-fill" data-item-order="-12960" transform="translate(27, 39)"><g id="ro_1q9h2ut1dzewhz-fill" stroke="none" fill="#ffeceb"><g><path d="M 22 10L 238 10C 238 10 250 10 250 22L 250 52C 250 52 250 64 238 64L 22 64C 22 64 10 64 10 52L 10 22C 10 22 10 10 22 10"></path></g></g></g><g id="g-root-ro_qunwdx1dzdiq7-fill" data-item-order="-12312" transform="translate(519, 189)"><g id="ro_qunwdx1dzdiq7-fill" stroke="none" fill="#fffbda"><g><path d="M 22 10L 226 10C 226 10 238 10 238 22L 238 52C 238 52 238 64 226 64L 22 64C 22 64 10 64 10 52L 10 22C 10 22 10 10 22 10"></path></g></g></g><g id="g-root-ro_4l2hf91dzexai-fill" data-item-order="-11664" transform="translate(51, 189)"><g id="ro_4l2hf91dzexai-fill" stroke="none" fill="#f4ffdc"><g><path d="M 22 10L 214 10C 214 10 226 10 226 22L 226 52C 226 52 226 64 214 64L 22 64C 22 64 10 64 10 52L 10 22C 10 22 10 10 22 10"></path></g></g></g><g id="g-root-ro_4j725x1dzdiiw-fill" data-item-order="-11664" transform="translate(519, 39)"><g id="ro_4j725x1dzdiiw-fill" stroke="none" fill="#faf0ff"><g><path d="M 22 10L 214 10C 214 10 226 10 226 22L 226 52C 226 52 226 64 214 64L 22 64C 22 64 10 64 10 52L 10 22C 10 22 10 10 22 10"></path></g></g></g><g id="g-root-cu_1qbci451dzewax-fill" data-item-order="0" transform="translate(543, 243)"></g><g id="g-root-cu_58zat1dzey2u-fill" data-item-order="0" transform="translate(471, 66)"></g><g id="g-root-cu_1lvizzp1dzex3d-fill" data-item-order="0" transform="translate(225, 243)"></g><g id="g-root-cu_1lvizzp1dzex3a-fill" data-item-order="0" transform="translate(225, 243)"></g><g id="g-root-cu_1uqjj5h1dzeyoa-fill" data-item-order="0" transform="translate(225, 93)"></g><g id="g-root-tx_singlet_96lx1dzex39-fill" data-item-order="0" transform="translate(147, 255)"><g id="tx_singlet_96lx1dzex39-fill" stroke="none" fill="#484848"><g><text style="font: 20px Roboto, sans-serif; white-space: pre;" font-size="20px" font-family="Roboto, sans-serif"><tspan x="15.52" y="33.5" dominant-baseline="ideographic">Singlet</tspan></text></g></g></g><g id="g-root-cu_58zat1dzey2r-fill" data-item-order="0" transform="translate(267, 66)"></g><g id="g-root-tx_cartesia_959b5h1dzdk3z-fill" data-item-order="0" transform="translate(15, 105)"><g id="tx_cartesia_959b5h1dzdk3z-fill" stroke="none" fill="#484848"><g><text style="font: 20px Roboto, sans-serif; white-space: pre;" font-size="20px" font-family="Roboto, sans-serif"><tspan x="12.89" y="33.5" dominant-baseline="ideographic">Cartesian Coordinates</tspan></text></g></g></g><g id="g-root-cu_1uqjj5h1dzeyo7-fill" data-item-order="0" transform="translate(225, 93)"></g><g id="g-root-tx_negative_96lx1dzex38-fill" data-item-order="0" transform="translate(567, 291)"><g id="tx_negative_96lx1dzex38-fill" stroke="none" fill="#484848"><g><text style="font: 20px Roboto, sans-serif; white-space: pre;" font-size="20px" font-family="Roboto, sans-serif"><tspan x="14.62" y="33.5" dominant-baseline="ideographic">Negative Charge</tspan></text></g></g></g><g id="g-root-tx_electron_4g2oqd1dzeway-fill" data-item-order="0" transform="translate(567, 141)"><g id="tx_electron_4g2oqd1dzeway-fill" stroke="none" fill="#484848"><g><text style="font: 20px Roboto, sans-serif; white-space: pre;" font-size="20px" font-family="Roboto, sans-serif"><tspan x="16.43" y="33.5" dominant-baseline="ideographic">Electrons</tspan></text></g></g></g><g id="g-root-cu_1qbci451dzewav-fill" data-item-order="0" transform="translate(543, 93)"></g><g id="g-root-cu_58zat1dzey2x-fill" data-item-order="0" transform="translate(471, 206)"></g><g id="g-root-cu_58zat1dzey30-fill" data-item-order="0" transform="translate(267, 206)"></g><g id="g-root-cu_1qbci451dzewb0-fill" data-item-order="0" transform="translate(543, 243)"></g><g id="g-root-tx_protons_4g2oqd1dzewax-fill" data-item-order="0" transform="translate(567, 105)"><g id="tx_protons_4g2oqd1dzewax-fill" stroke="none" fill="#484848"><g><text style="font: 20px Roboto, sans-serif; white-space: pre;" font-size="20px" font-family="Roboto, sans-serif"><tspan x="17.16" y="33.5" dominant-baseline="ideographic">Protons</tspan></text></g></g></g><g id="g-root-tx_3dstruct_dl2t9x1dzdk3k-fill" data-item-order="0" transform="translate(99, 141)"><g id="tx_3dstruct_dl2t9x1dzdk3k-fill" stroke="none" fill="#484848"><g><text style="font: 20px Roboto, sans-serif; white-space: pre;" font-size="20px" font-family="Roboto, sans-serif"><tspan x="14.65" y="33.5" dominant-baseline="ideographic">3D Structure</tspan></text></g></g></g><g id="g-root-tx_positive_96lx1dzex37-fill" data-item-order="0" transform="translate(567, 255)"><g id="tx_positive_96lx1dzex37-fill" stroke="none" fill="#484848"><g><text style="font: 20px Roboto, sans-serif; white-space: pre;" font-size="20px" font-family="Roboto, sans-serif"><tspan x="12.57" y="33.5" dominant-baseline="ideographic">Positive Charge</tspan></text></g></g></g><g id="g-root-tx_triplet_96lx1dzex3a-fill" data-item-order="0" transform="translate(159, 291)"><g id="tx_triplet_96lx1dzex3a-fill" stroke="none" fill="#484848"><g><text style="font: 20px Roboto, sans-serif; white-space: pre;" font-size="20px" font-family="Roboto, sans-serif"><tspan x="11.98" y="33.5" dominant-baseline="ideographic">Triplet</tspan></text></g></g></g><g id="g-root-cu_1qbci451dzewas-fill" data-item-order="0" transform="translate(543, 93)"></g><g id="g-root-tx_molecula_i09r5h1dzt0jx-fill" data-item-order="2000000000" transform="translate(339, 168)"><g id="tx_molecula_i09r5h1dzt0jx-fill" stroke="none" fill="#484848"><g><text style="font: 20px Roboto, sans-serif; white-space: pre;" font-size="20px" font-family="Roboto, sans-serif"><tspan x="17.37" y="33.5" dominant-baseline="ideographic">Molecular </tspan><tspan x="18.17" y="57.5" dominant-baseline="ideographic">Geometry </tspan><tspan x="35.9" y="81.5" dominant-baseline="ideographic">Setup</tspan></text></g></g></g><g id="g-root-1_4l2hf91dzexah-fill" data-item-order="2000000000" transform="translate(225, 201)"></g><g id="g-root-tx_spinmult_dgpho51dzewhs-fill" data-item-order="2000000000" transform="translate(63, 204)"><g id="tx_spinmult_dgpho51dzewhs-fill" stroke="none" fill="#92bd39"><g><text style="font: 20px Roboto, sans-serif; white-space: pre;" font-size="20px" font-family="Roboto, sans-serif"><tspan x="17.55" y="33.5" dominant-baseline="ideographic">Spin Multiplicity</tspan></text></g></g></g><g id="g-root-1_dl2q451dzsy6e-fill" data-item-order="2000000000" transform="translate(369, 114)"></g><g id="g-root-full_zqawmt1dzdhxi-fill" data-item-order="2000000000" transform="translate(531, 201)"></g><g id="g-root-tx_molecula_145hxo51dzdkb1-fill" data-item-order="2000000000" transform="translate(567, 204)"><g id="tx_molecula_145hxo51dzdkb1-fill" stroke="none" fill="#e0cb15"><g><text style="font: 20px Roboto, sans-serif; white-space: pre;" font-size="20px" font-family="Roboto, sans-serif"><tspan x="15.71" y="33.5" dominant-baseline="ideographic">Molecular Charge</tspan></text></g></g></g><g id="g-root-tx_nuclearc_hu13g51dzdk3q-fill" data-item-order="2000000000" transform="translate(567, 54)"><g id="tx_nuclearc_hu13g51dzdk3q-fill" stroke="none" fill="#ba5de5"><g><text style="font: 20px Roboto, sans-serif; white-space: pre;" font-size="20px" font-family="Roboto, sans-serif"><tspan x="14.29" y="33.5" dominant-baseline="ideographic">Nuclear Charges</tspan></text></g></g></g><g id="g-root-plut_8z0kad1dzdhqn-fill" data-item-order="2000000000" transform="translate(531, 51)"></g><g id="g-root-tx_atomicco_1q9h2ut1dzewhx-fill" data-item-order="2000000000" transform="translate(39, 54)"><g id="tx_atomicco_1q9h2ut1dzewhx-fill" stroke="none" fill="#e55753"><g><text style="font: 20px Roboto, sans-serif; white-space: pre;" font-size="20px" font-family="Roboto, sans-serif"><tspan x="11.84" y="33.5" dominant-baseline="ideographic">Atomic Coordinates</tspan></text></g></g></g><g id="g-root-nega_1q9h2ut1dzewhy-fill" data-item-order="2000000000" transform="translate(225, 51)"></g><g id="g-root-tf_1lvizzp1dzex3f-stroke" data-item-order="-290160" transform="translate(-9, -9)"></g><g id="g-root-ro_dl2q451dzsy6f-stroke" data-item-order="-27144" transform="translate(315, 90)"><g id="ro_dl2q451dzsy6f-stroke" fill="none" stroke-linecap="round" stroke-linejoin="round" stroke-miterlimit="4" stroke="#484848" stroke-width="2"><g><path d="M 34 10L 142 10C 142 10 166 10 166 34L 166 160C 166 160 166 184 142 184L 34 184C 34 184 10 184 10 160L 10 34C 10 34 10 10 34 10"></path></g></g></g><g id="g-root-ro_1q9h2ut1dzewhz-stroke" data-item-order="-12960" transform="translate(27, 39)"><g id="ro_1q9h2ut1dzewhz-stroke" fill="none" stroke-linecap="round" stroke-linejoin="round" stroke-miterlimit="4" stroke="#e55753" stroke-width="2"><g><path d="M 22 10L 238 10C 238 10 250 10 250 22L 250 52C 250 52 250 64 238 64L 22 64C 22 64 10 64 10 52L 10 22C 10 22 10 10 22 10"></path></g></g></g><g id="g-root-ro_qunwdx1dzdiq7-stroke" data-item-order="-12312" transform="translate(519, 189)"><g id="ro_qunwdx1dzdiq7-stroke" fill="none" stroke-linecap="round" stroke-linejoin="round" stroke-miterlimit="4" stroke="#e0cb15" stroke-width="2"><g><path d="M 22 10L 226 10C 226 10 238 10 238 22L 238 52C 238 52 238 64 226 64L 22 64C 22 64 10 64 10 52L 10 22C 10 22 10 10 22 10"></path></g></g></g><g id="g-root-ro_4l2hf91dzexai-stroke" data-item-order="-11664" transform="translate(51, 189)"><g id="ro_4l2hf91dzexai-stroke" fill="none" stroke-linecap="round" stroke-linejoin="round" stroke-miterlimit="4" stroke="#92bd39" stroke-width="2"><g><path d="M 22 10L 214 10C 214 10 226 10 226 22L 226 52C 226 52 226 64 214 64L 22 64C 22 64 10 64 10 52L 10 22C 10 22 10 10 22 10"></path></g></g></g><g id="g-root-ro_4j725x1dzdiiw-stroke" data-item-order="-11664" transform="translate(519, 39)"><g id="ro_4j725x1dzdiiw-stroke" fill="none" stroke-linecap="round" stroke-linejoin="round" stroke-miterlimit="4" stroke="#ba5de5" stroke-width="2"><g><path d="M 22 10L 214 10C 214 10 226 10 226 22L 226 52C 226 52 226 64 214 64L 22 64C 22 64 10 64 10 52L 10 22C 10 22 10 10 22 10"></path></g></g></g><g id="g-root-cu_1qbci451dzewax-stroke" data-item-order="0" transform="translate(543, 243)"><g id="cu_1qbci451dzewax-stroke" fill="none" stroke-linecap="round" stroke-linejoin="round" stroke-miterlimit="4" stroke="#969696" stroke-width="2" stroke-dasharray="5.0, 7.0"><g><path d="M 10 10L 10 22L 10 34L 19 34L 28 34"></path></g></g></g><g id="g-root-cu_58zat1dzey2u-stroke" data-item-order="0" transform="translate(471, 66)"><g id="cu_58zat1dzey2u-stroke" fill="none" stroke-linecap="round" stroke-linejoin="round" stroke-miterlimit="4" stroke="#969696" stroke-width="2" stroke-dasharray="5.0, 7.0"><g><path d="M 10 92L 13 92L 13.1 92C 24.642748 92.000003 33.999998 82.642755 33.999998 71.100003L 34 71L 34 30.9C 33.999999 19.357249 43.357248 10.000001 54.899999 10.000002L 55 10L 58 10"></path></g></g></g><g id="g-root-cu_1lvizzp1dzex3d-stroke" data-item-order="0" transform="translate(225, 243)"><g id="cu_1lvizzp1dzex3d-stroke" fill="none" stroke-linecap="round" stroke-linejoin="round" stroke-miterlimit="4" stroke="#969696" stroke-width="2" stroke-dasharray="5.0, 7.0"><g><path d="M 28 10L 28 17.5L 28 58C 27.999999 64.627415 22.627416 69.999998 16 69.999998L 15.9 70L 10 70"></path></g></g></g><g id="g-root-cu_1lvizzp1dzex3a-stroke" data-item-order="0" transform="translate(225, 243)"><g id="cu_1lvizzp1dzex3a-stroke" fill="none" stroke-linecap="round" stroke-linejoin="round" stroke-miterlimit="4" stroke="#969696" stroke-width="2" stroke-dasharray="5.0, 7.0"><g><path d="M 28 10L 28 22L 28 34L 19 34L 10 34"></path></g></g></g><g id="g-root-cu_1uqjj5h1dzeyoa-stroke" data-item-order="0" transform="translate(225, 93)"><g id="cu_1uqjj5h1dzeyoa-stroke" fill="none" stroke-linecap="round" stroke-linejoin="round" stroke-miterlimit="4" stroke="#969696" stroke-width="2" stroke-dasharray="5.0, 7.0"><g><path d="M 28 10L 28 17.5L 28 58C 27.999999 64.627415 22.627416 69.999998 16 69.999998L 15.9 70L 10 70"></path></g></g></g><g id="g-root-tx_singlet_96lx1dzex39-stroke" data-item-order="0" transform="translate(147, 255)"></g><g id="g-root-cu_58zat1dzey2r-stroke" data-item-order="0" transform="translate(267, 66)"><g id="cu_58zat1dzey2r-stroke" fill="none" stroke-linecap="round" stroke-linejoin="round" stroke-miterlimit="4" stroke="#969696" stroke-width="2" stroke-dasharray="5.0, 7.0"><g><path d="M 58 92L 55 92L 54.9 92C 43.357247 92 33.999998 82.642751 33.999998 71.1L 34 71L 34 30.9C 33.999998 19.357248 24.64275 10 13.1 10L 13 10L 10 10"></path></g></g></g><g id="g-root-tx_cartesia_959b5h1dzdk3z-stroke" data-item-order="0" transform="translate(15, 105)"></g><g id="g-root-cu_1uqjj5h1dzeyo7-stroke" data-item-order="0" transform="translate(225, 93)"><g id="cu_1uqjj5h1dzeyo7-stroke" fill="none" stroke-linecap="round" stroke-linejoin="round" stroke-miterlimit="4" stroke="#969696" stroke-width="2" stroke-dasharray="5.0, 7.0"><g><path d="M 28 10L 28 22L 28 34L 19 34L 10 34"></path></g></g></g><g id="g-root-tx_negative_96lx1dzex38-stroke" data-item-order="0" transform="translate(567, 291)"></g><g id="g-root-tx_electron_4g2oqd1dzeway-stroke" data-item-order="0" transform="translate(567, 141)"></g><g id="g-root-cu_1qbci451dzewav-stroke" data-item-order="0" transform="translate(543, 93)"><g id="cu_1qbci451dzewav-stroke" fill="none" stroke-linecap="round" stroke-linejoin="round" stroke-miterlimit="4" stroke="#969696" stroke-width="2" stroke-dasharray="5.0, 7.0"><g><path d="M 10 10L 10 17.5L 10 58C 10.000002 64.627417 15.372585 70 22.000002 69.999999L 22.1 70L 28 70"></path></g></g></g><g id="g-root-cu_58zat1dzey2x-stroke" data-item-order="0" transform="translate(471, 206)"><g id="cu_58zat1dzey2x-stroke" fill="none" stroke-linecap="round" stroke-linejoin="round" stroke-miterlimit="4" stroke="#969696" stroke-width="2" stroke-dasharray="5.0, 7.0"><g><path d="M 10 10L 13 10L 13.1 10C 16.360602 10.01615 19.962923 10.453815 23.800001 11.3C 26.03452 11.745014 29.638043 13.052174 34 15.000001C 38.361958 16.947827 41.965481 18.254987 44.200001 18.700001C 48.03708 19.546186 51.639401 19.983851 54.900002 20.000001L 55 20L 58 20"></path></g></g></g><g id="g-root-cu_58zat1dzey30-stroke" data-item-order="0" transform="translate(267, 206)"><g id="cu_58zat1dzey30-stroke" fill="none" stroke-linecap="round" stroke-linejoin="round" stroke-miterlimit="4" stroke="#969696" stroke-width="2" stroke-dasharray="5.0, 7.0"><g><path d="M 58 10L 55 10L 54.9 10C 51.639401 10.016148 48.03708 10.453814 44.200002 11.299999C 41.965481 11.745013 38.361958 13.052173 34 14.999999C 29.638043 16.947825 26.03452 18.254985 23.8 18.699999C 19.962923 19.546185 16.360601 19.98385 13.1 20L 13 20L 10 20"></path></g></g></g><g id="g-root-cu_1qbci451dzewb0-stroke" data-item-order="0" transform="translate(543, 243)"><g id="cu_1qbci451dzewb0-stroke" fill="none" stroke-linecap="round" stroke-linejoin="round" stroke-miterlimit="4" stroke="#969696" stroke-width="2" stroke-dasharray="5.0, 7.0"><g><path d="M 10 10L 10 17.5L 10 58C 10.000002 64.627417 15.372585 70 22.000002 69.999999L 22.1 70L 28 70"></path></g></g></g><g id="g-root-tx_protons_4g2oqd1dzewax-stroke" data-item-order="0" transform="translate(567, 105)"></g><g id="g-root-tx_3dstruct_dl2t9x1dzdk3k-stroke" data-item-order="0" transform="translate(99, 141)"></g><g id="g-root-tx_positive_96lx1dzex37-stroke" data-item-order="0" transform="translate(567, 255)"></g><g id="g-root-tx_triplet_96lx1dzex3a-stroke" data-item-order="0" transform="translate(159, 291)"></g><g id="g-root-cu_1qbci451dzewas-stroke" data-item-order="0" transform="translate(543, 93)"><g id="cu_1qbci451dzewas-stroke" fill="none" stroke-linecap="round" stroke-linejoin="round" stroke-miterlimit="4" stroke="#969696" stroke-width="2" stroke-dasharray="5.0, 7.0"><g><path d="M 10 10L 10 22L 10 34L 19 34L 28 34"></path></g></g></g><g id="g-root-tx_molecula_i09r5h1dzt0jx-stroke" data-item-order="2000000000" transform="translate(339, 168)"></g><g id="g-root-1_4l2hf91dzexah-stroke" data-item-order="2000000000" transform="translate(225, 201)"><g id="1_4l2hf91dzexah-stroke" fill="none" stroke-linecap="round" stroke-linejoin="round" stroke-miterlimit="4" stroke="#92bd39" stroke-width="2"><g><path d="M 13.664056 33.75198C 13.664056 36.858841 16.182663 39.377449 19.289524 39.377449C 22.396385 39.377449 24.914993 36.858841 24.914993 33.75198C 24.914993 30.645119 22.396385 28.126511 19.289524 28.126511C 16.182663 28.126511 13.664056 30.645119 13.664056 33.75198M 24.914993 33.666973L 24.914993 11.932661C 24.914993 11.507194 25.122581 11.108488 25.471138 10.864498C 25.819695 10.620509 26.265371 10.56193 26.66514 10.707559C 31.194586 12.131857 34.781525 15.6177 36.334694 20.104591"></path></g></g></g><g id="g-root-tx_spinmult_dgpho51dzewhs-stroke" data-item-order="2000000000" transform="translate(63, 204)"></g><g id="g-root-1_dl2q451dzsy6e-stroke" data-item-order="2000000000" transform="translate(369, 114)"><g id="1_dl2q451dzsy6e-stroke" fill="none" stroke-linecap="round" stroke-linejoin="round" stroke-miterlimit="4" stroke="#484848" stroke-width="2"><g><path d="M 10 10M 22 29.5L 34 38.5L 46 29.5M 34 38.5L 34 48.5M 22 29.5C 21.281525 25.867592 22.201668 22.103209 24.514778 19.211823C 26.827887 16.320435 30.298473 14.596407 34 14.5C 37.699211 14.602617 41.165733 16.328289 43.477501 19.217999C 45.789268 22.107708 46.711903 25.868486 45.999996 29.499998M 46 29.5C 51.806698 30.538157 56.02597 35.601284 56 41.5C 56 48.127419 50.627419 53.5 44 53.5C 40.026203 53.675251 36.24408 51.784187 34 48.5M 34 48.5C 31.735155 51.7603 27.967146 53.644302 24 53.499996C 17.372583 53.5 12 48.127419 12 41.5C 11.975666 35.601875 16.194176 30.539661 22 29.5"></path></g></g></g><g id="g-root-full_zqawmt1dzdhxi-stroke" data-item-order="2000000000" transform="translate(531, 201)"><g id="full_zqawmt1dzdhxi-stroke" fill="none" stroke-linecap="round" stroke-linejoin="round" stroke-miterlimit="4" stroke="#e0cb15" stroke-width="2"><g><path d="M 27.1875 38.4375L 35.9375 38.4375L 35.9375 13.4375C 35.9375 12.056788 34.818214 10.9375 33.4375 10.9375L 25.9375 10.9375C 24.556787 10.9375 23.4375 12.056788 23.4375 13.4375L 23.4375 20.9375M 30.07 15.3125L 28.33375 18.4375L 30.9375 18.4375L 29.20125 21.5625M 21.09375 26.5625L 21.09375 24.6875L 16.40625 24.6875L 16.40625 26.5625L 15.625 26.5625C 14.775612 26.549278 14.076199 27.22687 14.0625 28.07625L 14.0625 37.548748C 14.076199 38.398129 14.775612 39.075722 15.625 39.0625L 21.875 39.0625C 22.724388 39.075722 23.423801 38.398129 23.4375 37.548748L 23.4375 28.07625C 23.423801 27.22687 22.724388 26.549278 21.875 26.5625ZM 14.0625 30.423752L 23.4375 30.423752"></path></g></g></g><g id="g-root-tx_molecula_145hxo51dzdkb1-stroke" data-item-order="2000000000" transform="translate(567, 204)"></g><g id="g-root-tx_nuclearc_hu13g51dzdk3q-stroke" data-item-order="2000000000" transform="translate(567, 54)"></g><g id="g-root-plut_8z0kad1dzdhqn-stroke" data-item-order="2000000000" transform="translate(531, 51)"><g id="plut_8z0kad1dzdhqn-stroke" fill="none" stroke-linecap="round" stroke-linejoin="round" stroke-miterlimit="4" stroke="#ba5de5" stroke-width="2"><g><path d="M 11.875 10.625L 38.125 10.625C 38.125 10.625 39.375 10.625 39.375 11.875L 39.375 38.125C 39.375 38.125 39.375 39.375 38.125 39.375L 11.875 39.375C 11.875 39.375 10.625 39.375 10.625 38.125L 10.625 11.875C 10.625 11.875 10.625 10.625 11.875 10.625M 18.75 33.75L 31.25 33.75M 18.4375 30.626249L 18.4375 25.938751M 18.4375 25.938751L 18.4375 19.376249L 20.78125 19.376249C 22.593435 19.376249 24.0625 20.845316 24.0625 22.657501L 24.0625 22.657501C 24.0625 24.469685 22.593435 25.938751 20.78125 25.938751L 18.4375 25.938751ZM 30.4125 24.375L 30.4125 28.651249C 30.411812 29.741524 29.527775 30.625 28.4375 30.625L 28.4375 30.625C 27.347427 30.625 26.463751 29.741322 26.463751 28.651251L 26.463749 24.375M 30.4125 28.651249L 30.4125 30.625"></path></g></g></g><g id="g-root-tx_atomicco_1q9h2ut1dzewhx-stroke" data-item-order="2000000000" transform="translate(39, 54)"></g><g id="g-root-nega_1q9h2ut1dzewhy-stroke" data-item-order="2000000000" transform="translate(225, 51)"><g id="nega_1q9h2ut1dzewhy-stroke" fill="none" stroke-linecap="round" stroke-linejoin="round" stroke-miterlimit="4" stroke="#e55753" stroke-width="2"><g><path d="M 37.799999 19.96875C 40.154099 25.96327 38.027 32.788479 32.684074 36.384197C 27.341148 39.979919 20.217339 39.380447 15.550455 34.942402C 10.883573 30.504356 9.926995 23.419655 13.249774 17.902843C 16.572552 12.386034 23.282291 9.918758 29.387501 11.96875M 18.75 25C 18.75 28.45178 21.548222 31.25 25 31.25C 28.45178 31.25 31.25 28.45178 31.25 25C 31.25 21.548222 28.45178 18.75 25 18.75C 21.548222 18.75 18.75 21.548222 18.75 25M 21.875 25L 28.125 25M 25 21.875L 25 28.125M 31.25 15C 31.25 16.725889 32.649109 18.125 34.375 18.125C 36.100891 18.125 37.5 16.725889 37.5 15C 37.5 13.27411 36.100891 11.875 34.375 11.875C 32.649109 11.875 31.25 13.27411 31.25 15M 33.125 15L 35.494999 15"></path></g></g></g></g></g></svg>