<?xml version="1.0" encoding="utf-8" standalone="yes"?>
<!DOCTYPE svg PUBLIC "-//W3C//DTD SVG 1.1//EN" "http://www.w3.org/Graphics/SVG/1.1/DTD/svg11.dtd">
<svg width="704" height="507" viewBox="0 0 704 507" style="fill:none;stroke:none;fill-rule:evenodd;clip-rule:evenodd;stroke-linecap:round;stroke-linejoin:round;stroke-miterlimit:1.5;" version="1.1" xmlns="http://www.w3.org/2000/svg" xmlns:xlink="http://www.w3.org/1999/xlink"><style id="fontImports">@import url("https://fonts.googleapis.com/css2?family=Shantell+Sans:wght@300..800&amp;display=block");</style><rect id="" x="0" y="0" width="703.688" height="506.173" style="fill: #ffffff;"></rect><g id="items" style="isolation: isolate"><g id="blend" style="mix-blend-mode:normal"><g id="g-root-tf_vb3p9x1ghcoow-fill" data-item-order="-353773" transform="translate(-9, -9)"><g id="tf_vb3p9x1ghcoow-fill" stroke="none" fill="#ffffff"><g><path d="M 10.004177 10L 711.694177 10L 711.694177 514.17L 10.004177 514.17Z"></path></g></g></g><g id="g-root-4.cu_sy_1ly0mut1gh5n9j-fill" data-item-order="-152386" transform="translate(380.68865966796875, 363)"><g id="4.cu_sy_1ly0mut1gh5n9j-fill" stroke="none" fill="#e9ffb9"><g><path d="M 82 46C 82 65.8823 65.8823 82 46 82C 26.1177 82 10 65.8823 10 46C 10 26.1177 26.1177 10 46 10C 65.8823 10 82 26.1177 82 46Z"></path></g></g></g><g id="g-root-4.cu_1_sy_1ly0mut1gh5n9k-fill" data-item-order="-152384" transform="translate(163.24212646484375, 99)"><g id="4.cu_1_sy_1ly0mut1gh5n9k-fill" stroke="none" fill="#e9ffb9"><g><path d="M 10 28.8658L 65.6365 87.4995L 71.2586 68.5227C 90.01 79.9283 106.7212 95.7057 119.905 115.937C 129.137 130.105 135.461 145.053 139.124 160.16C 129.557 166.631 123.269 177.581 123.269 190C 123.269 202.819 129.969 214.074 140.059 220.452C 131.312 261.77 103.4074 297.515 62.1658 313.026L 74.3752 347.212C 130.492 326.74 166.677 277.385 176.181 221.788C 187.538 215.733 195.269 203.769 195.269 190C 195.269 175.856 187.112 163.618 175.247 157.731C 170.988 136.552 162.709 115.684 150.066 96.2822C 131.779 68.2192 108.1902 47.1633 81.819 32.877L 88.5965 10L 10 28.8658Z"></path></g></g></g><g id="g-root-3.cu_sy_1hi74qd1gh5o1t-fill" data-item-order="-152380" transform="translate(380.68841552734375, 279)"><g id="3.cu_sy_1hi74qd1gh5o1t-fill" stroke="none" fill="#c8ffe5"><g><path d="M 82 46C 82 65.8823 65.8823 82 46 82C 26.1177 82 10 65.8823 10 46C 10 26.1177 26.1177 10 46 10C 65.8823 10 82 26.1177 82 46Z"></path></g></g></g><g id="g-root-3.cu_1_sy_1hi74qd1gh5o1u-fill" data-item-order="-152378" transform="translate(20.688400268554688, 234.602783203125)"><g id="3.cu_1_sy_1hi74qd1gh5o1u-fill" stroke="none" fill="#c8ffe5"><g><path d="M 65.559606 192.065C 90.966906 211.242 123.230006 222.57 158.340006 221.65C 179.698006 221.623 199.298006 218.041 216.929006 211.609L 204.720006 177.423C 190.652006 182.714 175.032006 185.65 158.091006 185.65L 157.841006 185.65L 157.590006 185.657C 132.073006 186.368 109.105506 178.897 90.753006 166.141C 91.451506 163.342 91.822306 160.413 91.822306 157.397C 91.822306 137.515 75.704506 121.397 55.822306 121.397C 55.251306 121.397 54.683406 121.411 54.118906 121.437C 43.713606 97.0247 43.047206 68.5421 55.944906 41.3555C 58.063006 36.8909 60.530906 32.6833 63.296906 28.7495L 32.494206 10C 29.121606 15.004 26.080106 20.3169 23.419606 25.925C 4.311606 66.2018 6.753206 107.3637 23.520806 141.485C 21.152806 146.283 19.822306 151.685 19.822306 157.397C 19.822306 177.279 35.940006 193.397 55.822306 193.397C 59.196606 193.397 62.462506 192.933 65.559606 192.065Z"></path></g></g></g><g id="g-root-2.cu_sy_1hi74qd1gh5o1v-fill" data-item-order="-152374" transform="translate(380.6884765625, 195)"><g id="2.cu_sy_1hi74qd1gh5o1v-fill" stroke="none" fill="#d1f4ff"><g><path d="M 82 46C 82 65.8823 65.8823 82 46 82C 26.1177 82 10 65.8823 10 46C 10 26.1177 26.1177 10 46 10C 65.8823 10 82 26.1177 82 46Z"></path></g></g></g><g id="g-root-2.cu_1_sy_18mk4hh1gh5ouk-fill" data-item-order="-152372" transform="translate(43.18255615234375, 165)"><g id="2.cu_1_sy_18mk4hh1gh5ouk-fill" stroke="none" fill="#d1f4ff"><g><path d="M 171.07 41.6631C 183.05 49.4425 193.86 60.0099 202.712 73.5974L 202.718 73.6074C 209.619 84.2141 214.09 96.0025 216.233 108.0936L 180.613 113.458C 179.229 106.3132 176.549 99.3995 172.546 93.2444C 167.835 86.0145 162.328 80.0555 156.248 75.3013C 150.352 79.5183 143.13 82 135.328 82C 120.907 82 108.4662 73.5204 102.7201 61.2752C 102.1114 61.3487 101.5027 61.4289 100.8939 61.5158C 77.639 64.8361 55.1885 77.8927 40.8027 98.3523L 10 79.6029C 30.2564 49.5478 62.4567 30.6387 95.8055 25.8772C 99.25 25.3855 102.7147 25.0444 106.1871 24.8579C 112.731 15.854 123.346 10 135.328 10C 153.743 10 168.928 23.8258 171.07 41.6631Z"></path></g></g></g><g id="g-root-1.cu_sy_18mk4hh1gh5oul-fill" data-item-order="-152368" transform="translate(380.6884765625, 111)"><g id="1.cu_sy_18mk4hh1gh5oul-fill" stroke="none" fill="#dce9ff"><g><path d="M 82 46C 82 65.8823 65.8823 82 46 82C 26.1177 82 10 65.8823 10 46C 10 26.1177 26.1177 10 46 10C 65.8823 10 82 26.1177 82 46Z"></path></g></g></g><g id="g-root-1.cu_1_sy_18mk4hh1gh5oum-fill" data-item-order="-152366" transform="translate(96.26364135742188, 263.09326171875)"><g id="1.cu_1_sy_18mk4hh1gh5oum-fill" stroke="none" fill="#dce9ff"><g><path d="M 147.724969 80.7629C 151.806969 75.1392 155.170969 69.0218 157.783969 62.59C 164.412969 46.2757 166.308969 27.8095 163.151969 10L 127.530969 15.3648C 129.727969 26.7086 128.658969 38.636 124.431969 49.0384C 123.953969 50.2158 123.436969 51.3715 122.879969 52.5028C 119.518969 51.4653 115.948969 50.9067 112.246969 50.9067C 95.489269 50.9067 81.405869 62.3566 77.393269 77.86C 65.263269 76.9974 55.604869 71.1896 49.432669 61.1709C 47.695869 58.3516 46.235069 55.199 45.072969 51.7292C 41.915769 42.3028 31.714769 37.2205 22.288269 40.3777C 12.861869 43.5349 7.779569 53.7359 10.936769 63.1624C 12.284169 67.1855 13.895169 71.0187 15.750769 74.6436C 28.567969 99.6822 53.056269 114.787 82.982669 113.938C 84.731169 113.889 86.454269 113.794 88.151669 113.654C 94.532069 119.406 102.980669 122.907 112.246969 122.907C 132.128969 122.907 148.246969 106.7889 148.246969 86.9067C 148.246969 84.8121 148.067969 82.7594 147.724969 80.7629Z"></path></g></g></g><g id="g-root-tx_iterativ_147d3g51gh5mh3-fill" data-item-order="0" transform="translate(128.68829345703125, 27)"><g id="tx_iterativ_147d3g51gh5mh3-fill" stroke="none" fill="#484848"><g><text style="font: bold 25px &quot;Shantell Sans&quot;, cursive; white-space: pre;" font-weight="bold" font-size="25px" font-family="'Shantell Sans', cursive"><tspan x="15.85" y="44.5" dominant-baseline="ideographic">Iterative Energy Change Process</tspan></text></g></g></g><g id="g-root-48px_zqx7ed1ghcnwn-fill" data-item-order="0" transform="translate(392.68829345703125, 123)"></g><g id="g-root-tx_comparee_qvwl2t1gh5o23-fill" data-item-order="0" transform="translate(464.68829345703125, 123)"><g id="tx_comparee_qvwl2t1gh5o23-fill" stroke="none" fill="#484848"><g><text style="font: 20px &quot;Shantell Sans&quot;, cursive; white-space: pre;" font-size="20px" font-family="'Shantell Sans', cursive"><tspan x="12" y="35.5" dominant-baseline="ideographic">Compare Energy </tspan><tspan x="12" y="59.5" dominant-baseline="ideographic">Change</tspan></text></g></g></g><g id="g-root-2_1d3mks51ghe41z-fill" data-item-order="0" transform="translate(144.51058959960938, 177)"></g><g id="g-root-48px_1uua7cl1ghbb49-fill" data-item-order="0" transform="translate(392.68829345703125, 207)"></g><g id="g-root-tx_checkden_qvwl2t1gh5o22-fill" data-item-order="0" transform="translate(464.68829345703125, 207)"><g id="tx_checkden_qvwl2t1gh5o22-fill" stroke="none" fill="#484848"><g><text style="font: 20px &quot;Shantell Sans&quot;, cursive; white-space: pre;" font-size="20px" font-family="'Shantell Sans', cursive"><tspan x="12" y="35.5" dominant-baseline="ideographic">Check Density Matrix </tspan><tspan x="12" y="59.5" dominant-baseline="ideographic">Difference</tspan></text></g></g></g><g id="g-root-merg_1upabhx1ghpb0m-fill" data-item-order="0" transform="translate(288.5105895996094, 255)"></g><g id="g-root-48px_vb3p9x1gh9urp-fill" data-item-order="0" transform="translate(392.68829345703125, 291)"></g><g id="g-root-tx_ifnotcon_zrjlbp1gh5n9d-fill" data-item-order="0" transform="translate(464.68829345703125, 291)"><g id="tx_ifnotcon_zrjlbp1gh5n9d-fill" stroke="none" fill="#484848"><g><text style="font: 20px &quot;Shantell Sans&quot;, cursive; white-space: pre;" font-size="20px" font-family="'Shantell Sans', cursive"><tspan x="12" y="35.5" dominant-baseline="ideographic">If Not Converged, </tspan><tspan x="12" y="59.5" dominant-baseline="ideographic">Return to Step 4</tspan></text></g></g></g><g id="g-root-char_zpo62d1ghb8xz-fill" data-item-order="0" transform="translate(174.51058959960938, 315)"></g><g id="g-root-prep_v8lprp1ghl53c-fill" data-item-order="0" transform="translate(42.510589599609375, 357)"></g><g id="g-root-48px_vb3p9x1gh71my-fill" data-item-order="0" transform="translate(392.68829345703125, 375)"></g><g id="g-root-tx_ifconver_zrjlbp1gh5n9c-fill" data-item-order="0" transform="translate(464.68829345703125, 363)"><g id="tx_ifconver_zrjlbp1gh5n9c-fill" stroke="none" fill="#484848"><g><text style="font: 20px &quot;Shantell Sans&quot;, cursive; white-space: pre;" font-size="20px" font-family="'Shantell Sans', cursive"><tspan x="12" y="35.5" dominant-baseline="ideographic">If Converged, </tspan><tspan x="12" y="59.5" dominant-baseline="ideographic">Proceed to Final </tspan><tspan x="12" y="83.5" dominant-baseline="ideographic">Analysis</tspan></text></g></g></g><g id="g-root-tf_vb3p9x1ghcoow-stroke" data-item-order="-353773" transform="translate(-9, -9)"></g><g id="g-root-4.cu_sy_1ly0mut1gh5n9j-stroke" data-item-order="-152386" transform="translate(380.68865966796875, 363)"><g id="4.cu_sy_1ly0mut1gh5n9j-stroke" fill="none" stroke-linecap="round" stroke-linejoin="round" stroke-miterlimit="4" stroke="#ffffff" stroke-width="2"><g><path d="M 82 46C 82 65.8823 65.8823 82 46 82C 26.1177 82 10 65.8823 10 46C 10 26.1177 26.1177 10 46 10C 65.8823 10 82 26.1177 82 46Z"></path></g></g></g><g id="g-root-4.cu_1_sy_1ly0mut1gh5n9k-stroke" data-item-order="-152384" transform="translate(163.24212646484375, 99)"><g id="4.cu_1_sy_1ly0mut1gh5n9k-stroke" fill="none" stroke-linecap="round" stroke-linejoin="round" stroke-miterlimit="4" stroke="#ffffff" stroke-width="2"><g><path d="M 10 28.8658L 65.6365 87.4995L 71.2586 68.5227C 90.01 79.9283 106.7212 95.7057 119.9048 115.9367C 129.1374 130.1048 135.4614 145.053 139.1238 160.1596C 129.5572 166.6305 123.2686 177.5809 123.2686 190C 123.2686 202.8193 129.969 214.0737 140.0588 220.4519C 131.3124 261.7701 103.4074 297.5153 62.1658 313.0258L 74.3752 347.212C 130.4925 326.7398 166.6775 277.3851 176.1812 221.788C 187.5384 215.7328 195.2686 203.7691 195.2686 190C 195.2686 175.8564 187.1122 163.6178 175.2466 157.7312C 170.988 136.5524 162.7093 115.6842 150.0659 96.2822C 131.7788 68.2192 108.1902 47.1633 81.819 32.877L 88.5965 10L 10 28.8658Z"></path></g></g></g><g id="g-root-3.cu_sy_1hi74qd1gh5o1t-stroke" data-item-order="-152380" transform="translate(380.68841552734375, 279)"><g id="3.cu_sy_1hi74qd1gh5o1t-stroke" fill="none" stroke-linecap="round" stroke-linejoin="round" stroke-miterlimit="4" stroke="#ffffff" stroke-width="2"><g><path d="M 82 46C 82 65.8823 65.8823 82 46 82C 26.1177 82 10 65.8823 10 46C 10 26.1177 26.1177 10 46 10C 65.8823 10 82 26.1177 82 46Z"></path></g></g></g><g id="g-root-3.cu_1_sy_1hi74qd1gh5o1u-stroke" data-item-order="-152378" transform="translate(20.688400268554688, 234.602783203125)"><g id="3.cu_1_sy_1hi74qd1gh5o1u-stroke" fill="none" stroke-linecap="round" stroke-linejoin="round" stroke-miterlimit="4" stroke="#ffffff" stroke-width="2"><g><path d="M 65.559606 192.0649C 90.966906 211.2422 123.230406 222.5704 158.340406 221.6501C 179.698206 221.6225 199.297606 218.0415 216.929406 211.6092L 204.720006 177.423C 190.652006 182.7139 175.032106 185.6503 158.091506 185.6503L 157.840706 185.6503L 157.590006 185.6573C 132.073006 186.3685 109.105506 178.8972 90.753006 166.1412C 91.451506 163.3419 91.822306 160.4128 91.822306 157.3972C 91.822306 137.515 75.704506 121.3972 55.822306 121.3972C 55.251306 121.3972 54.683406 121.4105 54.118906 121.4368C 43.713606 97.0247 43.047206 68.5421 55.944906 41.3555C 58.063006 36.8909 60.530906 32.6833 63.296906 28.7495L 32.494206 10C 29.121606 15.004 26.080106 20.3169 23.419606 25.925C 4.311606 66.2018 6.753206 107.3637 23.520806 141.4851C 21.152806 146.283 19.822306 151.6847 19.822306 157.3972C 19.822306 177.2795 35.940006 193.3972 55.822306 193.3972C 59.196606 193.3972 62.462506 192.933 65.559606 192.0649Z"></path></g></g></g><g id="g-root-2.cu_sy_1hi74qd1gh5o1v-stroke" data-item-order="-152374" transform="translate(380.6884765625, 195)"><g id="2.cu_sy_1hi74qd1gh5o1v-stroke" fill="none" stroke-linecap="round" stroke-linejoin="round" stroke-miterlimit="4" stroke="#ffffff" stroke-width="2"><g><path d="M 82 46C 82 65.8823 65.8823 82 46 82C 26.1177 82 10 65.8823 10 46C 10 26.1177 26.1177 10 46 10C 65.8823 10 82 26.1177 82 46Z"></path></g></g></g><g id="g-root-2.cu_1_sy_18mk4hh1gh5ouk-stroke" data-item-order="-152372" transform="translate(43.18255615234375, 165)"><g id="2.cu_1_sy_18mk4hh1gh5ouk-stroke" fill="none" stroke-linecap="round" stroke-linejoin="round" stroke-miterlimit="4" stroke="#ffffff" stroke-width="2"><g><path d="M 171.0696 41.6631C 183.0501 49.4425 193.8597 60.0099 202.7119 73.5974L 202.7184 73.6074C 209.6186 84.2141 214.0903 96.0025 216.2334 108.0936L 180.6126 113.4584C 179.2287 106.3132 176.5488 99.3995 172.5457 93.2444C 167.8349 86.0145 162.3284 80.0555 156.2479 75.3013C 150.3519 79.5183 143.1298 82 135.3281 82C 120.9069 82 108.4662 73.5204 102.7201 61.2752C 102.1114 61.3487 101.5027 61.4289 100.8939 61.5158C 77.639 64.8361 55.1885 77.8927 40.8027 98.3523L 10 79.6029C 30.2564 49.5478 62.4567 30.6387 95.8055 25.8772C 99.25 25.3855 102.7147 25.0444 106.1871 24.8579C 112.7309 15.854 123.3459 10 135.3281 10C 153.7426 10 168.9278 23.8258 171.0696 41.6631Z"></path></g></g></g><g id="g-root-1.cu_sy_18mk4hh1gh5oul-stroke" data-item-order="-152368" transform="translate(380.6884765625, 111)"><g id="1.cu_sy_18mk4hh1gh5oul-stroke" fill="none" stroke-linecap="round" stroke-linejoin="round" stroke-miterlimit="4" stroke="#ffffff" stroke-width="2"><g><path d="M 82 46C 82 65.8823 65.8823 82 46 82C 26.1177 82 10 65.8823 10 46C 10 26.1177 26.1177 10 46 10C 65.8823 10 82 26.1177 82 46Z"></path></g></g></g><g id="g-root-1.cu_1_sy_18mk4hh1gh5oum-stroke" data-item-order="-152366" transform="translate(96.26364135742188, 263.09326171875)"><g id="1.cu_1_sy_18mk4hh1gh5oum-stroke" fill="none" stroke-linecap="round" stroke-linejoin="round" stroke-miterlimit="4" stroke="#ffffff" stroke-width="2"><g><path d="M 147.724869 80.7629C 151.807269 75.1392 155.170969 69.0218 157.784269 62.59C 164.413069 46.2757 166.308669 27.8095 163.151969 10L 127.531269 15.3648C 129.728369 26.7086 128.658969 38.636 124.432369 49.0384C 123.953869 50.2158 123.436669 51.3715 122.880169 52.5028C 119.519469 51.4653 115.948469 50.9067 112.247069 50.9067C 95.489269 50.9067 81.405869 62.3566 77.393269 77.86C 65.263269 76.9974 55.604869 71.1896 49.432669 61.1709C 47.695869 58.3516 46.235069 55.199 45.072969 51.7292C 41.915769 42.3028 31.714769 37.2205 22.288269 40.3777C 12.861869 43.5349 7.779569 53.7359 10.936769 63.1624C 12.284169 67.1855 13.895169 71.0187 15.750769 74.6436C 28.567969 99.6822 53.056269 114.7868 82.982669 113.9385C 84.731169 113.8889 86.454269 113.7937 88.151669 113.6543C 94.532069 119.4057 102.980669 122.9067 112.247069 122.9067C 132.129269 122.9067 148.247069 106.7889 148.247069 86.9067C 148.247069 84.8121 148.068169 82.7594 147.724869 80.7629Z"></path></g></g></g><g id="g-root-tx_iterativ_147d3g51gh5mh3-stroke" data-item-order="0" transform="translate(128.68829345703125, 27)"></g><g id="g-root-48px_zqx7ed1ghcnwn-stroke" data-item-order="0" transform="translate(392.68829345703125, 123)"><g id="48px_zqx7ed1ghcnwn-stroke" fill="none" stroke-linecap="round" stroke-linejoin="round" stroke-miterlimit="4" stroke="#4e88e7" stroke-width="2"><g><path d="M 37.8418 23.3774L 46.2969 20.1836L 46.2969 47.951M 15.07227 30.1785C 15.07227 24.4817 17.78873 19.69524 23.0107 19.69524C 28.2328 19.69524 30.9492 24.4817 30.9492 30.1785L 30.9492 37.2727C 30.9492 42.9695 28.1054 47.8816 23.0107 47.8816C 17.91609 47.8816 15.07227 42.9695 15.07227 37.2727L 15.07227 30.1785Z"></path></g></g></g><g id="g-root-tx_comparee_qvwl2t1gh5o23-stroke" data-item-order="0" transform="translate(464.68829345703125, 123)"></g><g id="g-root-2_1d3mks51ghe41z-stroke" data-item-order="0" transform="translate(144.51058959960938, 177)"><g id="2_1d3mks51ghe41z-stroke" fill="none" stroke-linecap="round" stroke-linejoin="round" stroke-miterlimit="4" stroke="#1eabda" stroke-width="2"><g><path d="M 27.986 26.986L 56.408001 26.986M 27.986 40.014L 56.408001 40.014M 12.592 12.776L 12.592 44.75M 11.592 54.223999C 11.592 54.776283 12.039715 55.223999 12.592 55.223999C 13.144285 55.223999 13.592 54.776283 13.592 54.223999C 13.592 53.671715 13.144285 53.223999 12.592 53.223999C 12.039715 53.223999 11.592 53.671715 11.592 54.223999"></path></g></g></g><g id="g-root-48px_1uua7cl1ghbb49-stroke" data-item-order="0" transform="translate(392.68829345703125, 207)"><g id="48px_1uua7cl1ghbb49-stroke" fill="none" stroke-linecap="round" stroke-linejoin="round" stroke-miterlimit="4" stroke="#1eabda" stroke-width="2"><g><path d="M 15.07227 30.1785C 15.07227 24.4817 17.78873 19.69524 23.0107 19.69524C 28.2328 19.69524 30.9492 24.4817 30.9492 30.1785L 30.9492 37.2727C 30.9492 42.9695 28.1054 47.8816 23.0107 47.8816C 17.91609 47.8816 15.07227 42.9695 15.07227 37.2727L 15.07227 30.1785ZM 36.8315 27.5154C 36.8315 22.8951 40.0559 19.69531 44.4376 19.69531C 51.7066 19.69531 54.1859 26.7886 49.4213 33.0984L 37.33 47.4175L 53.9507 47.4175"></path></g></g></g><g id="g-root-tx_checkden_qvwl2t1gh5o22-stroke" data-item-order="0" transform="translate(464.68829345703125, 207)"></g><g id="g-root-merg_1upabhx1ghpb0m-stroke" data-item-order="0" transform="translate(288.5105895996094, 255)"><g id="merg_1upabhx1ghpb0m-stroke" fill="none" stroke-linecap="round" stroke-linejoin="round" stroke-miterlimit="4" stroke="#92bd39" stroke-width="2"><g><path d="M 57 15L 34 53L 11 15L 57 15Z"></path></g></g></g><g id="g-root-48px_vb3p9x1gh9urp-stroke" data-item-order="0" transform="translate(392.68829345703125, 291)"><g id="48px_vb3p9x1gh9urp-stroke" fill="none" stroke-linecap="round" stroke-linejoin="round" stroke-miterlimit="4" stroke="#3cc583" stroke-width="2"><g><path d="M 15.07227 30.1785C 15.07227 24.4817 17.78873 19.69524 23.0107 19.69524C 28.2328 19.69524 30.9492 24.4817 30.9492 30.1785L 30.9492 37.2727C 30.9492 42.9695 28.1054 47.8816 23.0107 47.8816C 17.91609 47.8816 15.07227 42.9695 15.07227 37.2727L 15.07227 30.1785ZM 37.1212 27.0681C 37.0021 24.6592 38.4826 19.70994 45.0653 19.70994C 51.648 19.70994 52.6563 24.5974 52.4282 27.357C 52.1767 30.3999 50.2718 33.5079 42.2007 33.5079C 49.7136 33.5079 53.1255 35.562 53.1255 41.1245C 53.1255 45.9328 48.8755 47.8898 44.9922 47.8898C 42.2014 47.866 36.6196 46.2871 36.6196 40.1622"></path></g></g></g><g id="g-root-tx_ifnotcon_zrjlbp1gh5n9d-stroke" data-item-order="0" transform="translate(464.68829345703125, 291)"></g><g id="g-root-char_zpo62d1ghb8xz-stroke" data-item-order="0" transform="translate(174.51058959960938, 315)"><g id="char_zpo62d1ghb8xz-stroke" fill="none" stroke-linecap="round" stroke-linejoin="round" stroke-miterlimit="4" stroke="#4e88e7" stroke-width="2"><g><path d="M 23 53C 19.686291 53 17 50.313709 17 47L 17 21C 17 17.686291 19.686291 15 23 15L 39 15M 45 15C 48.313709 15 51 17.686291 51 21L 51 47C 51 50.313709 48.313709 53 45 53L 29 53M 35 11L 39 15L 35 19M 33 49L 29 53L 33 57M 27 44C 27 44.552284 27.447716 45 28 45L 40 45C 40.552284 45 41 44.552284 41 44L 41 28C 41 27.447716 40.552284 27 40 27L 37 27L 37 24C 37 23.447716 36.552284 23 36 23L 32 23C 31.447716 23 31 23.447716 31 24L 31 27L 28 27C 27.447716 27 27 27.447716 27 28ZM 36 30.062L 32.734001 33.288002C 32.445145 33.572868 32.357025 34.004028 32.510941 34.379391C 32.66486 34.754753 33.030304 34.999928 33.436001 35L 34.599998 35C 35.00312 35.000069 35.366779 35.242188 35.522354 35.614075C 35.677925 35.98597 35.59499 36.414909 35.312 36.702L 32 40.062"></path></g></g></g><g id="g-root-prep_v8lprp1ghl53c-stroke" data-item-order="0" transform="translate(42.510589599609375, 357)"><g id="prep_v8lprp1ghl53c-stroke" fill="none" stroke-linecap="round" stroke-linejoin="round" stroke-miterlimit="4" stroke="#3cc583" stroke-width="2"><g><path d="M 44.778 52L 23.222 52L 11 34.048L 23.222 16L 44.778 16L 57 34.048L 44.778 52Z"></path></g></g></g><g id="g-root-48px_vb3p9x1gh71my-stroke" data-item-order="0" transform="translate(392.68829345703125, 375)"><g id="48px_vb3p9x1gh71my-stroke" fill="none" stroke-linecap="round" stroke-linejoin="round" stroke-miterlimit="4" stroke="#92bd39" stroke-width="2"><g><path d="M 15.07227 30.179C 15.07227 24.4822 17.78873 19.69573 23.0107 19.69573C 28.2328 19.69573 30.9492 24.4822 30.9492 30.179L 30.9492 37.2732C 30.9492 42.97 28.1054 47.8821 23.0107 47.8821C 17.91609 47.8821 15.07227 42.97 15.07227 37.2732L 15.07227 30.179ZM 49.9098 47.9788L 49.9098 19.55127L 36.2949 39.738L 55.3147 39.738"></path></g></g></g><g id="g-root-tx_ifconver_zrjlbp1gh5n9c-stroke" data-item-order="0" transform="translate(464.68829345703125, 363)"></g></g></g></svg>