<?xml version="1.0" encoding="utf-8" standalone="yes"?>
<!DOCTYPE svg PUBLIC "-//W3C//DTD SVG 1.1//EN" "http://www.w3.org/Graphics/SVG/1.1/DTD/svg11.dtd">
<svg width="812" height="506" viewBox="0 0 812 506" style="fill:none;stroke:none;fill-rule:evenodd;clip-rule:evenodd;stroke-linecap:round;stroke-linejoin:round;stroke-miterlimit:1.5;" version="1.1" xmlns="http://www.w3.org/2000/svg" xmlns:xlink="http://www.w3.org/1999/xlink"><style id="fontImports">@import url("https://fonts.googleapis.com/css2?family=Shantell+Sans:wght@300..800&amp;display=block");</style><rect id="" x="0" y="0" width="812" height="506" style="fill: #ffffff;"></rect><g id="items" style="isolation: isolate"><g id="blend" style="mix-blend-mode:normal"><g id="g-root-tf_18fon1x1h1eo76-fill" data-item-order="-408240" transform="translate(-9, -9)"><g id="tf_18fon1x1h1eo76-fill" stroke="none" fill="#ffffff"><g><path d="M 10 10L 820 10L 820 514L 10 514Z"></path></g></g></g><g id="g-root-4.cu_sy_qu0t6d1h1g3d4-fill" data-item-order="-71480" transform="translate(451.16845703125, 297.3671875)"><g id="4.cu_sy_qu0t6d1h1g3d4-fill" stroke="none" fill="#e9ffb9"><g><path d="M 28.4966 135.818L 143.661 135.878C 142.249 87.2093 122.726 43.0818 91.5959 10L 10 91.512001C 20.4126 103.606801 27.1545 118.952001 28.4966 135.818Z"></path></g></g></g><g id="g-root-3.cu_sy_qu0t6d1h1g3d5-fill" data-item-order="-71476" transform="translate(398.72265625, 237.005859375)"><g id="3.cu_sy_qu0t6d1h1g3d5-fill" stroke="none" fill="#c8ffe5"><g><path d="M 54.2876 143.707L 135.884 62.1953C 102.8306 31.0287 58.7202 11.4613 10.0593 10L 10 125.165C 26.8633 126.524 42.2024 133.282 54.2876 143.707Z"></path></g></g></g><g id="g-root-2.cu_sy_me7b1x1h1g45e-fill" data-item-order="-71472" transform="translate(261.361328125, 237)"><g id="2.cu_sy_me7b1x1h1g45e-fill" stroke="none" fill="#d1f4ff"><g><path d="M 91.0519 143.201C 103.3025 132.847 118.81 126.225 135.818 125.092L 135.878 10C 87.2093 11.4122 43.0818 30.9356 10 62.0655L 91.0519 143.201Z"></path></g></g></g><g id="g-root-1.cu_sy_me7b1x1h1g45f-fill" data-item-order="-71468" transform="translate(201, 297.2236328125)"><g id="1.cu_sy_me7b1x1h1g45f-fill" stroke="none" fill="#e7e1ff"><g><path d="M 62.1951 10C 31.0286 43.0529 11.4613 87.1633 10 135.824L 124.165 135.883C 125.545 118.77 132.483 103.2269 143.173 91.0611L 62.1951 10Z"></path></g></g></g><g id="g-root-tx_totalele_1lqioc51h1eps1-fill" data-item-order="0" transform="translate(237, 27)"><g id="tx_totalele_1lqioc51h1eps1-fill" stroke="none" fill="#484848"><g><text style="font: bold 25px &quot;Shantell Sans&quot;, cursive; white-space: pre;" font-weight="bold" font-size="25px" font-family="'Shantell Sans', cursive"><tspan x="12.52" y="44.5" dominant-baseline="ideographic">Total Electronic Energy</tspan></text></g></g></g><g id="g-root-tx_populati_1q6c6gl1h1eozq-fill" data-item-order="0" transform="translate(447.076171875, 87)"><g id="tx_populati_1q6c6gl1h1eozq-fill" stroke="none" fill="#484848"><g><text style="font: bold 20px &quot;Shantell Sans&quot;, cursive; white-space: pre;" font-weight="bold" font-size="20px" font-family="'Shantell Sans', cursive"><tspan x="16.38" y="35.5" dominant-baseline="ideographic">Population </tspan><tspan x="28.75" y="59.5" dominant-baseline="ideographic">Analysis</tspan></text></g></g></g><g id="g-root-tx_wavefunc_1q6c6gl1h1eozr-fill" data-item-order="0" transform="translate(195, 111)"><g id="tx_wavefunc_1q6c6gl1h1eozr-fill" stroke="none" fill="#484848"><g><text style="font: bold 20px &quot;Shantell Sans&quot;, cursive; white-space: pre;" font-weight="bold" font-size="20px" font-family="'Shantell Sans', cursive"><tspan x="12.25" y="35.5" dominant-baseline="ideographic">Wavefunctions</tspan></text></g></g></g><g id="g-root-tx_represen_1um5ol11h1eo7f-fill" data-item-order="0" transform="translate(201, 147)"><g id="tx_represen_1um5ol11h1eo7f-fill" stroke="none" fill="#484848"><g><text style="font: 15px &quot;Shantell Sans&quot;, cursive; white-space: pre;" font-size="15px" font-family="'Shantell Sans', cursive"><tspan x="27.59" y="29" dominant-baseline="ideographic">Represents the </tspan><tspan x="43.06" y="47" dominant-baseline="ideographic">probability </tspan><tspan x="30.41" y="65" dominant-baseline="ideographic">distribution of </tspan><tspan x="14.97" y="83" dominant-baseline="ideographic">electrons in space.</tspan></text></g></g></g><g id="g-root-tx_analyzes_4gomut1h1enlu-fill" data-item-order="0" transform="translate(435, 147)"><g id="tx_analyzes_4gomut1h1enlu-fill" stroke="none" fill="#484848"><g><text style="font: 15px &quot;Shantell Sans&quot;, cursive; white-space: pre;" font-size="15px" font-family="'Shantell Sans', cursive"><tspan x="20.25" y="32" dominant-baseline="ideographic">Analyzes electron </tspan><tspan x="16.37" y="50" dominant-baseline="ideographic">distribution among </tspan><tspan x="17.68" y="68" dominant-baseline="ideographic">molecular orbitals.</tspan></text></g></g></g><g id="g-root-tx_orbitale_1q6c6gl1h1eozs-fill" data-item-order="0" transform="translate(45, 267)"><g id="tx_orbitale_1q6c6gl1h1eozs-fill" stroke="none" fill="#484848"><g><text style="font: bold 20px &quot;Shantell Sans&quot;, cursive; white-space: pre;" font-weight="bold" font-size="20px" font-family="'Shantell Sans', cursive"><tspan x="21.03" y="35.5" dominant-baseline="ideographic">Orbital </tspan><tspan x="13.14" y="59.5" dominant-baseline="ideographic">Energies</tspan></text></g></g></g><g id="g-root-4_8wi4z91h1924u-fill" data-item-order="0" transform="translate(318, 279)"></g><g id="g-root-tabl_8wi4z91h1buh7-fill" data-item-order="0" transform="translate(420, 279)"></g><g id="g-root-tx_dipolemo_1um5ol11h1eo7h-fill" data-item-order="0" transform="translate(609, 291)"><g id="tx_dipolemo_1um5ol11h1eo7h-fill" stroke="none" fill="#484848"><g><text style="font: bold 20px &quot;Shantell Sans&quot;, cursive; white-space: pre;" font-weight="bold" font-size="20px" font-family="'Shantell Sans', cursive"><tspan x="15.27" y="35.5" dominant-baseline="ideographic">Dipole Moment</tspan></text></g></g></g><g id="g-root-tx_describe_1um5ol11h1eo7g-fill" data-item-order="0" transform="translate(9, 327)"><g id="tx_describe_1um5ol11h1eo7g-fill" stroke="none" fill="#484848"><g><text style="font: 15px &quot;Shantell Sans&quot;, cursive; white-space: pre;" font-size="15px" font-family="'Shantell Sans', cursive"><tspan x="15.64" y="32" dominant-baseline="ideographic">Describes the energy </tspan><tspan x="16.25" y="50" dominant-baseline="ideographic">levels of electrons in </tspan><tspan x="34.94" y="68" dominant-baseline="ideographic">atomic orbitals.</tspan></text></g></g></g><g id="g-root-tx_measures_8wi4z91h1emtl-fill" data-item-order="0" transform="translate(609, 327)"><g id="tx_measures_8wi4z91h1emtl-fill" stroke="none" fill="#484848"><g><text style="font: 15px &quot;Shantell Sans&quot;, cursive; white-space: pre;" font-size="15px" font-family="'Shantell Sans', cursive"><tspan x="12.39" y="29" dominant-baseline="ideographic">Measures the polarity </tspan><tspan x="51.24" y="47" dominant-baseline="ideographic">and charge </tspan><tspan x="34.46" y="65" dominant-baseline="ideographic">distribution in a </tspan><tspan x="59.21" y="83" dominant-baseline="ideographic">molecule.</tspan></text></g></g></g><g id="g-root-irid_mb2xmd1h1n3f1-fill" data-item-order="0" transform="translate(243, 357)"></g><g id="g-root-hori_8wi4z91h1emtk-fill" data-item-order="0" transform="translate(495, 357)"></g><g id="g-root-nega_hv9fhx1h1kbup-fill" data-item-order="0" transform="translate(357, 375)"></g><g id="g-root-tf_18fon1x1h1eo76-stroke" data-item-order="-408240" transform="translate(-9, -9)"></g><g id="g-root-4.cu_sy_qu0t6d1h1g3d4-stroke" data-item-order="-71480" transform="translate(451.16845703125, 297.3671875)"><g id="4.cu_sy_qu0t6d1h1g3d4-stroke" fill="none" stroke-linecap="round" stroke-linejoin="round" stroke-miterlimit="4" stroke="#ffffff" stroke-width="2"><g><path d="M 28.4966 135.818401L 143.6613 135.877701C 142.2492 87.2093 122.7257 43.0818 91.5959 10L 10 91.512001C 20.4126 103.606801 27.1545 118.952001 28.4966 135.818401Z"></path></g></g></g><g id="g-root-3.cu_sy_qu0t6d1h1g3d5-stroke" data-item-order="-71476" transform="translate(398.72265625, 237.005859375)"><g id="3.cu_sy_qu0t6d1h1g3d5-stroke" fill="none" stroke-linecap="round" stroke-linejoin="round" stroke-miterlimit="4" stroke="#ffffff" stroke-width="2"><g><path d="M 54.2876 143.7073L 135.8836 62.1953C 102.8306 31.0287 58.7202 11.4613 10.0593 10L 10 125.1652C 26.8633 126.5242 42.2024 133.2815 54.2876 143.7073Z"></path></g></g></g><g id="g-root-2.cu_sy_me7b1x1h1g45e-stroke" data-item-order="-71472" transform="translate(261.361328125, 237)"><g id="2.cu_sy_me7b1x1h1g45e-stroke" fill="none" stroke-linecap="round" stroke-linejoin="round" stroke-miterlimit="4" stroke="#ffffff" stroke-width="2"><g><path d="M 91.0519 143.2008C 103.3025 132.8468 118.8096 126.2255 135.8185 125.0916L 135.8777 10C 87.2093 11.4122 43.0818 30.9356 10 62.0655L 91.0519 143.2008Z"></path></g></g></g><g id="g-root-1.cu_sy_me7b1x1h1g45f-stroke" data-item-order="-71468" transform="translate(201, 297.2236328125)"><g id="1.cu_sy_me7b1x1h1g45f-stroke" fill="none" stroke-linecap="round" stroke-linejoin="round" stroke-miterlimit="4" stroke="#ffffff" stroke-width="2"><g><path d="M 62.1951 10C 31.0286 43.0529 11.4613 87.1633 10 135.8241L 124.1653 135.8829C 125.5445 118.7701 132.4829 103.2269 143.1729 91.0611L 62.1951 10Z"></path></g></g></g><g id="g-root-tx_totalele_1lqioc51h1eps1-stroke" data-item-order="0" transform="translate(237, 27)"></g><g id="g-root-tx_populati_1q6c6gl1h1eozq-stroke" data-item-order="0" transform="translate(447.076171875, 87)"></g><g id="g-root-tx_wavefunc_1q6c6gl1h1eozr-stroke" data-item-order="0" transform="translate(195, 111)"></g><g id="g-root-tx_represen_1um5ol11h1eo7f-stroke" data-item-order="0" transform="translate(201, 147)"></g><g id="g-root-tx_analyzes_4gomut1h1enlu-stroke" data-item-order="0" transform="translate(435, 147)"></g><g id="g-root-tx_orbitale_1q6c6gl1h1eozs-stroke" data-item-order="0" transform="translate(45, 267)"></g><g id="g-root-4_8wi4z91h1924u-stroke" data-item-order="0" transform="translate(318, 279)"><g id="4_8wi4z91h1924u-stroke" fill="none" stroke-linecap="round" stroke-linejoin="round" stroke-miterlimit="4" stroke="#1eabda" stroke-width="2"><g><path d="M 11.714286 20.285715L 19.6 29.474285C 20.219322 30.194094 21.10943 30.624819 22.058199 30.663809C 23.006969 30.702799 23.929419 30.346563 24.605715 29.68L 31.462858 22.822857C 32.106628 22.173784 32.982956 21.808691 33.897141 21.808691C 34.811329 21.808691 35.687656 22.173784 36.331429 22.822857L 43.188572 29.68C 43.864868 30.346563 44.787315 30.702799 45.736088 30.663809C 46.684853 30.624819 47.574966 30.194094 48.194286 29.474285L 56.285713 20.285715M 11.714286 37.428574L 19.6 46.617146C 20.219322 47.336952 21.10943 47.767673 22.058199 47.806667C 23.006969 47.845657 23.929419 47.489422 24.605715 46.822857L 31.462858 39.965714C 32.106628 39.316643 32.982956 38.95155 33.897141 38.95155C 34.811329 38.95155 35.687656 39.316643 36.331429 39.965714L 43.188572 46.822857C 43.864868 47.489422 44.787315 47.845657 45.736088 47.806667C 46.684853 47.767673 47.574966 47.336952 48.194286 46.617146L 56.285713 37.428574"></path></g></g></g><g id="g-root-tabl_8wi4z91h1buh7-stroke" data-item-order="0" transform="translate(420, 279)"><g id="tabl_8wi4z91h1buh7-stroke" fill="none" stroke-linecap="round" stroke-linejoin="round" stroke-miterlimit="4" stroke="#3cc583" stroke-width="2"><g><path d="M 11.5 12.25L 19 12.25L 19 19.75L 11.5 19.75ZM 49 12.25L 56.5 12.25L 56.5 19.75L 49 19.75ZM 11.5 19.75L 19 19.75L 19 27.25L 11.5 27.25ZM 11.5 27.25L 19 27.25L 19 34.75L 11.5 34.75ZM 11.5 34.75L 19 34.75L 19 42.25L 11.5 42.25ZM 19 27.25L 26.5 27.25L 26.5 34.75L 19 34.75ZM 19 19.75L 26.5 19.75L 26.5 27.25L 19 27.25ZM 19 34.75L 26.5 34.75L 26.5 42.25L 19 42.25ZM 19 48.25L 26.5 48.25L 26.5 55.75L 19 55.75ZM 26.5 27.25L 34 27.25L 34 34.75L 26.5 34.75ZM 26.5 34.75L 34 34.75L 34 42.25L 26.5 42.25L 26.5 34.75ZM 26.5 48.25L 34 48.25L 34 55.75L 26.5 55.75L 26.5 48.25ZM 34 27.25L 41.5 27.25L 41.5 34.75L 34 34.75ZM 34 34.75L 41.5 34.75L 41.5 42.25L 34 42.25ZM 41.5 27.25L 49 27.25L 49 34.75L 41.5 34.75ZM 34 48.25L 41.5 48.25L 41.5 55.75L 34 55.75ZM 41.5 34.75L 49 34.75L 49 42.25L 41.5 42.25ZM 41.5 34.75L 49 34.75L 49 42.25L 41.5 42.25ZM 41.5 19.75L 49 19.75L 49 27.25L 41.5 27.25ZM 49 27.25L 56.5 27.25L 56.5 34.75L 49 34.75ZM 41.5 48.25L 49 48.25L 49 55.75L 41.5 55.75ZM 41.5 48.25L 49 48.25L 49 55.75L 41.5 55.75ZM 49 19.75L 56.5 19.75L 56.5 27.25L 49 27.25ZM 49 34.75L 56.5 34.75L 56.5 42.25L 49 42.25ZM 26 12.496L 42 12.496"></path></g></g></g><g id="g-root-tx_dipolemo_1um5ol11h1eo7h-stroke" data-item-order="0" transform="translate(609, 291)"></g><g id="g-root-tx_describe_1um5ol11h1eo7g-stroke" data-item-order="0" transform="translate(9, 327)"></g><g id="g-root-tx_measures_8wi4z91h1emtl-stroke" data-item-order="0" transform="translate(609, 327)"></g><g id="g-root-irid_mb2xmd1h1n3f1-stroke" data-item-order="0" transform="translate(243, 357)"><g id="irid_mb2xmd1h1n3f1-stroke" fill="none" stroke-linecap="round" stroke-linejoin="round" stroke-miterlimit="4" stroke="#7f64ea" stroke-width="2"><g><path d="M 13 11L 55 11C 55 11 57 11 57 13L 57 55C 57 55 57 57 55 57L 13 57C 13 57 11 57 11 55L 11 13C 11 13 11 11 13 11M 24 48L 44 48M 34 43.004002L 25 43.004002M 25 25.001999L 34 25.001999M 29.5 25.001999L 29.5 43.001999M 38.667999 43.001999L 38.667999 36.335999C 38.668747 34.954277 39.521698 33.716198 40.812485 33.223221C 42.103275 32.730247 43.564384 33.084549 44.486004 34.114002M 38.667999 36.335999L 38.667999 33"></path></g></g></g><g id="g-root-hori_8wi4z91h1emtk-stroke" data-item-order="0" transform="translate(495, 357)"><g id="hori_8wi4z91h1emtk-stroke" fill="none" stroke-linecap="round" stroke-linejoin="round" stroke-miterlimit="4" stroke="#92bd39" stroke-width="2"><g><path d="M 10 10M 57 18L 51 12L 45 18M 57 50L 51 56L 45 50M 11 34L 38.624001 34C 45.45908 34 51.000004 28.459078 51.000004 21.624001L 51 12M 38.624001 34C 45.45908 34 51.000004 39.540924 51.000004 46.376003L 51 56"></path></g></g></g><g id="g-root-nega_hv9fhx1h1kbup-stroke" data-item-order="0" transform="translate(357, 375)"><g id="nega_hv9fhx1h1kbup-stroke" fill="none" stroke-linecap="round" stroke-linejoin="round" stroke-miterlimit="4" stroke="#484848" stroke-width="2"><g><path d="M 76.720001 33.924999C 82.369835 48.311852 77.264801 64.692352 64.441772 73.322075C 51.618755 81.951805 34.52161 80.513077 23.321091 69.861771C 12.120573 59.210453 9.82479 42.207169 17.799458 28.966825C 25.774126 15.726481 41.877499 9.805019 56.529999 14.724999M 31 46C 31 54.284271 37.715729 61 46 61C 54.284271 61 61 54.284271 61 46C 61 37.715729 54.284271 31 46 31C 37.715729 31 31 37.715729 31 46M 38.5 46L 53.5 46M 46 38.5L 46 53.5M 61 22C 61 26.142136 64.357864 29.5 68.5 29.5C 72.642136 29.5 76 26.142136 76 22C 76 17.857864 72.642136 14.5 68.5 14.5C 64.357864 14.5 61 17.857864 61 22M 65.5 22L 71.188004 22"></path></g></g></g></g></g></svg>