<?xml version="1.0" encoding="utf-8" standalone="yes"?>
<!DOCTYPE svg PUBLIC "-//W3C//DTD SVG 1.1//EN" "http://www.w3.org/Graphics/SVG/1.1/DTD/svg11.dtd">
<svg width="818" height="386" viewBox="0 0 818 386" style="fill:none;stroke:none;fill-rule:evenodd;clip-rule:evenodd;stroke-linecap:round;stroke-linejoin:round;stroke-miterlimit:1.5;" version="1.1" xmlns="http://www.w3.org/2000/svg" xmlns:xlink="http://www.w3.org/1999/xlink"><style id="fontImports">@import url("https://fonts.googleapis.com/css2?family=Roboto:wght@400;700&amp;display=block");</style><rect id="" x="0" y="0" width="818" height="386" style="fill: #ffffff;"></rect><g id="items" style="isolation: isolate"><g id="blend" style="mix-blend-mode:normal"><g id="g-root-tf_1ltnr1x1cvm6mc-fill" data-item-order="-313344" transform="translate(-9, -9)"><g id="tf_1ltnr1x1cvm6mc-fill" stroke="none" fill="#ffffff"><g><path d="M 10 10L 826 10L 826 394L 10 394Z"></path></g></g></g><g id="g-root-ro_1hclar91cvcc94-fill" data-item-order="-21600" transform="translate(327, 51)"><g id="ro_1hclar91cvcc94-fill" stroke="none" fill="#f5f5f5"><g><path d="M 34 10L 130 10C 130 10 154 10 154 34L 154 136C 154 136 154 160 130 160L 34 160C 34 160 10 160 10 136L 10 34C 10 34 10 10 34 10"></path></g></g></g><g id="g-root-ro_4j78hh1cvm6tn-fill" data-item-order="-14256" transform="translate(15, 39)"><g id="ro_4j78hh1cvm6tn-fill" stroke="none" fill="#edf4ff"><g><path d="M 22 10L 262 10C 262 10 274 10 274 22L 274 52C 274 52 274 64 262 64L 22 64C 22 64 10 64 10 52L 10 22C 10 22 10 10 22 10"></path></g></g></g><g id="g-root-ro_hssblh1cvkr9d-fill" data-item-order="-12960" transform="translate(279, 237)"><g id="ro_hssblh1cvkr9d-fill" stroke="none" fill="#fffbda"><g><path d="M 22 10L 238 10C 238 10 250 10 250 22L 250 52C 250 52 250 64 238 64L 22 64C 22 64 10 64 10 52L 10 22C 10 22 10 10 22 10"></path></g></g></g><g id="g-root-ro_1lrsbsl1cvhypy-fill" data-item-order="-12960" transform="translate(519, 39)"><g id="ro_1lrsbsl1cvhypy-fill" stroke="none" fill="#faf0ff"><g><path d="M 22 10L 238 10C 238 10 250 10 250 22L 250 52C 250 52 250 64 238 64L 22 64C 22 64 10 64 10 52L 10 22C 10 22 10 10 22 10"></path></g></g></g><g id="g-root-cu_1ltnr1x1cvm6m9-fill" data-item-order="0" transform="translate(303, 291)"></g><g id="g-root-cu_1uparat1cvm51e-fill" data-item-order="0" transform="translate(399, 201)"></g><g id="g-root-cu_3dqd11cvm7lw-fill" data-item-order="0" transform="translate(279, 66)"></g><g id="g-root-tx_631g_4hbt851cvksuc-fill" data-item-order="0" transform="translate(159, 177)"><g id="tx_631g_4hbt851cvksuc-fill" stroke="none" fill="#484848"><g><text style="font: 20px Roboto, sans-serif; white-space: pre;" font-size="20px" font-family="Roboto, sans-serif"><tspan x="15.28" y="33.5" dominant-baseline="ideographic">6-31G*</tspan></text></g></g></g><g id="g-root-tx_kinetice_4hbt851cvksue-fill" data-item-order="0" transform="translate(567, 141)"><g id="tx_kinetice_4hbt851cvksue-fill" stroke="none" fill="#484848"><g><text style="font: 20px Roboto, sans-serif; white-space: pre;" font-size="20px" font-family="Roboto, sans-serif"><tspan x="16.03" y="33.5" dominant-baseline="ideographic">Kinetic Energy Matrix T</tspan></text></g></g></g><g id="g-root-cu_3dqd11cvm7lz-fill" data-item-order="0" transform="translate(471, 66)"></g><g id="g-root-tx_overlapm_4hbt851cvksud-fill" data-item-order="0" transform="translate(567, 105)"><g id="tx_overlapm_4hbt851cvksud-fill" stroke="none" fill="#484848"><g><text style="font: 20px Roboto, sans-serif; white-space: pre;" font-size="20px" font-family="Roboto, sans-serif"><tspan x="15.1" y="33.5" dominant-baseline="ideographic">Overlap Matrix S</tspan></text></g></g></g><g id="g-root-tx_321g_8x5bcl1cvks23-fill" data-item-order="0" transform="translate(171, 141)"><g id="tx_321g_8x5bcl1cvks23-fill" stroke="none" fill="#484848"><g><text style="font: 20px Roboto, sans-serif; white-space: pre;" font-size="20px" font-family="Roboto, sans-serif"><tspan x="13.58" y="33.5" dominant-baseline="ideographic">3-21G</tspan></text></g></g></g><g id="g-root-tx_sto3g_8x5bcl1cvks22-fill" data-item-order="0" transform="translate(159, 105)"><g id="tx_sto3g_8x5bcl1cvks22-fill" stroke="none" fill="#484848"><g><text style="font: 20px Roboto, sans-serif; white-space: pre;" font-size="20px" font-family="Roboto, sans-serif"><tspan x="12.18" y="33.5" dominant-baseline="ideographic">STO-3G</tspan></text></g></g></g><g id="g-root-cu_1uparat1cvm51h-fill" data-item-order="0" transform="translate(237, 93)"></g><g id="g-root-cu_1q9h96d1cvm5ts-fill" data-item-order="0" transform="translate(237, 93)"></g><g id="g-root-cu_1q9h96d1cvm5tu-fill" data-item-order="0" transform="translate(237, 93)"></g><g id="g-root-cu_1hdu8xh1cvm6mn-fill" data-item-order="0" transform="translate(543, 93)"></g><g id="g-root-tx_nucleare_4hbt851cvksuf-fill" data-item-order="0" transform="translate(327, 303)"><g id="tx_nucleare_4hbt851cvksuf-fill" stroke="none" fill="#484848"><g><text style="font: 20px Roboto, sans-serif; white-space: pre;" font-size="20px" font-family="Roboto, sans-serif"><tspan x="16.18" y="33.5" dominant-baseline="ideographic">Nuclear-Electron Attraction</tspan></text></g></g></g><g id="g-root-cu_1q9h96d1cvm5tw-fill" data-item-order="0" transform="translate(543, 93)"></g><g id="g-root-tx_basisset_1lsesvp1cvcbgu-fill" data-item-order="2000000000" transform="translate(351, 129)"><g id="tx_basisset_1lsesvp1cvcbgu-fill" stroke="none" fill="#484848"><g><text style="font: 20px Roboto, sans-serif; white-space: pre;" font-size="20px" font-family="Roboto, sans-serif"><tspan x="14.14" y="33.5" dominant-baseline="ideographic">Basis Set </tspan><tspan x="14.42" y="57.5" dominant-baseline="ideographic">Selection</tspan></text></g></g></g><g id="g-root-tx_construc_1q7ltx11cvhxxo-fill" data-item-order="2000000000" transform="translate(567, 54)"><g id="tx_construc_1q7ltx11cvhxxo-fill" stroke="none" fill="#ba5de5"><g><text style="font: 20px Roboto, sans-serif; white-space: pre;" font-size="20px" font-family="Roboto, sans-serif"><tspan x="15.04" y="33.5" dominant-baseline="ideographic">Construct Matrices</tspan></text></g></g></g><g id="g-root-tabl_1hclar91cvcc93-fill" data-item-order="2000000000" transform="translate(375, 75)"></g><g id="g-root-equa_1lrsbsl1cvhypx-fill" data-item-order="2000000000" transform="translate(531, 51)"></g><g id="g-root-thro_hssblh1cvkr9c-fill" data-item-order="2000000000" transform="translate(291, 249)"></g><g id="g-root-tx_calculat_m8ltpx1cvkqh3-fill" data-item-order="2000000000" transform="translate(327, 252)"><g id="tx_calculat_m8ltpx1cvkqh3-fill" stroke="none" fill="#e0cb15"><g><text style="font: 20px Roboto, sans-serif; white-space: pre;" font-size="20px" font-family="Roboto, sans-serif"><tspan x="17.35" y="33.5" dominant-baseline="ideographic">Calculate Integrals</tspan></text></g></g></g><g id="g-root-nega_deu8qd1cvm60y-fill" data-item-order="2000000000" transform="translate(237, 51)"></g><g id="g-root-tx_selectat_deu8qd1cvm60x-fill" data-item-order="2000000000" transform="translate(27, 54)"><g id="tx_selectat_deu8qd1cvm60x-fill" stroke="none" fill="#4e88e7"><g><text style="font: 20px Roboto, sans-serif; white-space: pre;" font-size="20px" font-family="Roboto, sans-serif"><tspan x="13.27" y="33.5" dominant-baseline="ideographic">Select Atomic Orbitals</tspan></text></g></g></g><g id="g-root-tf_1ltnr1x1cvm6mc-stroke" data-item-order="-313344" transform="translate(-9, -9)"></g><g id="g-root-ro_1hclar91cvcc94-stroke" data-item-order="-21600" transform="translate(327, 51)"><g id="ro_1hclar91cvcc94-stroke" fill="none" stroke-linecap="round" stroke-linejoin="round" stroke-miterlimit="4" stroke="#484848" stroke-width="2"><g><path d="M 34 10L 130 10C 130 10 154 10 154 34L 154 136C 154 136 154 160 130 160L 34 160C 34 160 10 160 10 136L 10 34C 10 34 10 10 34 10"></path></g></g></g><g id="g-root-ro_4j78hh1cvm6tn-stroke" data-item-order="-14256" transform="translate(15, 39)"><g id="ro_4j78hh1cvm6tn-stroke" fill="none" stroke-linecap="round" stroke-linejoin="round" stroke-miterlimit="4" stroke="#4e88e7" stroke-width="2"><g><path d="M 22 10L 262 10C 262 10 274 10 274 22L 274 52C 274 52 274 64 262 64L 22 64C 22 64 10 64 10 52L 10 22C 10 22 10 10 22 10"></path></g></g></g><g id="g-root-ro_hssblh1cvkr9d-stroke" data-item-order="-12960" transform="translate(279, 237)"><g id="ro_hssblh1cvkr9d-stroke" fill="none" stroke-linecap="round" stroke-linejoin="round" stroke-miterlimit="4" stroke="#e0cb15" stroke-width="2"><g><path d="M 22 10L 238 10C 238 10 250 10 250 22L 250 52C 250 52 250 64 238 64L 22 64C 22 64 10 64 10 52L 10 22C 10 22 10 10 22 10"></path></g></g></g><g id="g-root-ro_1lrsbsl1cvhypy-stroke" data-item-order="-12960" transform="translate(519, 39)"><g id="ro_1lrsbsl1cvhypy-stroke" fill="none" stroke-linecap="round" stroke-linejoin="round" stroke-miterlimit="4" stroke="#ba5de5" stroke-width="2"><g><path d="M 22 10L 238 10C 238 10 250 10 250 22L 250 52C 250 52 250 64 238 64L 22 64C 22 64 10 64 10 52L 10 22C 10 22 10 10 22 10"></path></g></g></g><g id="g-root-cu_1ltnr1x1cvm6m9-stroke" data-item-order="0" transform="translate(303, 291)"><g id="cu_1ltnr1x1cvm6m9-stroke" fill="none" stroke-linecap="round" stroke-linejoin="round" stroke-miterlimit="4" stroke="#969696" stroke-width="2" stroke-dasharray="5.0, 7.0"><g><path d="M 10 10L 10 13L 10 22C 10 28.627416 15.372583 33.999999 22 33.999999L 22.1 34L 28 34"></path></g></g></g><g id="g-root-cu_1uparat1cvm51e-stroke" data-item-order="0" transform="translate(399, 201)"><g id="cu_1uparat1cvm51e-stroke" fill="none" stroke-linecap="round" stroke-linejoin="round" stroke-miterlimit="4" stroke="#969696" stroke-width="2" stroke-dasharray="5.0, 7.0"><g><path d="M 10 10L 10 28L 10 46"></path></g></g></g><g id="g-root-cu_3dqd11cvm7lw-stroke" data-item-order="0" transform="translate(279, 66)"><g id="cu_3dqd11cvm7lw-stroke" fill="none" stroke-linecap="round" stroke-linejoin="round" stroke-miterlimit="4" stroke="#969696" stroke-width="2" stroke-dasharray="5.0, 7.0"><g><path d="M 58 45L 55 45L 54.9 45C 50.422131 44.972593 45.63978 43.214375 41.299999 40C 38.67988 38.118536 36.018569 33.561496 33.999999 27.499999C 31.98143 21.438501 29.320119 16.881461 26.699999 15C 22.360218 11.785625 17.577867 10.027408 13.1 10L 13 10L 10 10"></path></g></g></g><g id="g-root-tx_631g_4hbt851cvksuc-stroke" data-item-order="0" transform="translate(159, 177)"></g><g id="g-root-tx_kinetice_4hbt851cvksue-stroke" data-item-order="0" transform="translate(567, 141)"></g><g id="g-root-cu_3dqd11cvm7lz-stroke" data-item-order="0" transform="translate(471, 66)"><g id="cu_3dqd11cvm7lz-stroke" fill="none" stroke-linecap="round" stroke-linejoin="round" stroke-miterlimit="4" stroke="#969696" stroke-width="2" stroke-dasharray="5.0, 7.0"><g><path d="M 10 45L 13 45L 13.1 45C 17.577866 44.972592 22.360217 43.214375 26.699999 40C 29.320119 38.118536 31.98143 33.561497 33.999999 27.499999C 36.018569 21.438502 38.67988 16.881462 41.299999 15C 45.63978 11.785625 50.422131 10.027407 54.899998 9.999999L 55 10L 58 10"></path></g></g></g><g id="g-root-tx_overlapm_4hbt851cvksud-stroke" data-item-order="0" transform="translate(567, 105)"></g><g id="g-root-tx_321g_8x5bcl1cvks23-stroke" data-item-order="0" transform="translate(171, 141)"></g><g id="g-root-tx_sto3g_8x5bcl1cvks22-stroke" data-item-order="0" transform="translate(159, 105)"></g><g id="g-root-cu_1uparat1cvm51h-stroke" data-item-order="0" transform="translate(237, 93)"><g id="cu_1uparat1cvm51h-stroke" fill="none" stroke-linecap="round" stroke-linejoin="round" stroke-miterlimit="4" stroke="#969696" stroke-width="2" stroke-dasharray="5.0, 7.0"><g><path d="M 28 10L 28 22L 28 34L 19 34L 10 34"></path></g></g></g><g id="g-root-cu_1q9h96d1cvm5ts-stroke" data-item-order="0" transform="translate(237, 93)"><g id="cu_1q9h96d1cvm5ts-stroke" fill="none" stroke-linecap="round" stroke-linejoin="round" stroke-miterlimit="4" stroke="#969696" stroke-width="2" stroke-dasharray="5.0, 7.0"><g><path d="M 28 10L 28 40L 28 70L 19 70L 10 70"></path></g></g></g><g id="g-root-cu_1q9h96d1cvm5tu-stroke" data-item-order="0" transform="translate(237, 93)"><g id="cu_1q9h96d1cvm5tu-stroke" fill="none" stroke-linecap="round" stroke-linejoin="round" stroke-miterlimit="4" stroke="#969696" stroke-width="2" stroke-dasharray="5.0, 7.0"><g><path d="M 28 10L 28 22L 28 94C 28.000002 100.627415 22.627419 105.999998 16.000002 105.999998L 15.9 106L 10 106"></path></g></g></g><g id="g-root-cu_1hdu8xh1cvm6mn-stroke" data-item-order="0" transform="translate(543, 93)"><g id="cu_1hdu8xh1cvm6mn-stroke" fill="none" stroke-linecap="round" stroke-linejoin="round" stroke-miterlimit="4" stroke="#969696" stroke-width="2" stroke-dasharray="5.0, 7.0"><g><path d="M 10 10L 10 17.5L 10 58C 10.000002 64.627417 15.372585 70 22.000002 69.999999L 22.1 70L 28 70"></path></g></g></g><g id="g-root-tx_nucleare_4hbt851cvksuf-stroke" data-item-order="0" transform="translate(327, 303)"></g><g id="g-root-cu_1q9h96d1cvm5tw-stroke" data-item-order="0" transform="translate(543, 93)"><g id="cu_1q9h96d1cvm5tw-stroke" fill="none" stroke-linecap="round" stroke-linejoin="round" stroke-miterlimit="4" stroke="#969696" stroke-width="2" stroke-dasharray="5.0, 7.0"><g><path d="M 10 10L 10 22L 10 34L 19 34L 28 34"></path></g></g></g><g id="g-root-tx_basisset_1lsesvp1cvcbgu-stroke" data-item-order="2000000000" transform="translate(351, 129)"></g><g id="g-root-tx_construc_1q7ltx11cvhxxo-stroke" data-item-order="2000000000" transform="translate(567, 54)"></g><g id="g-root-tabl_1hclar91cvcc93-stroke" data-item-order="2000000000" transform="translate(375, 75)"><g id="tabl_1hclar91cvcc93-stroke" fill="none" stroke-linecap="round" stroke-linejoin="round" stroke-miterlimit="4" stroke="#484848" stroke-width="2"><g><path d="M 11.5 12.25L 19 12.25L 19 19.75L 11.5 19.75ZM 49 12.25L 56.5 12.25L 56.5 19.75L 49 19.75ZM 11.5 19.75L 19 19.75L 19 27.25L 11.5 27.25ZM 11.5 27.25L 19 27.25L 19 34.75L 11.5 34.75ZM 11.5 34.75L 19 34.75L 19 42.25L 11.5 42.25ZM 19 27.25L 26.5 27.25L 26.5 34.75L 19 34.75ZM 19 19.75L 26.5 19.75L 26.5 27.25L 19 27.25ZM 19 34.75L 26.5 34.75L 26.5 42.25L 19 42.25ZM 19 48.25L 26.5 48.25L 26.5 55.75L 19 55.75ZM 26.5 27.25L 34 27.25L 34 34.75L 26.5 34.75ZM 26.5 34.75L 34 34.75L 34 42.25L 26.5 42.25L 26.5 34.75ZM 26.5 48.25L 34 48.25L 34 55.75L 26.5 55.75L 26.5 48.25ZM 34 27.25L 41.5 27.25L 41.5 34.75L 34 34.75ZM 34 34.75L 41.5 34.75L 41.5 42.25L 34 42.25ZM 41.5 27.25L 49 27.25L 49 34.75L 41.5 34.75ZM 34 48.25L 41.5 48.25L 41.5 55.75L 34 55.75ZM 41.5 34.75L 49 34.75L 49 42.25L 41.5 42.25ZM 41.5 34.75L 49 34.75L 49 42.25L 41.5 42.25ZM 41.5 19.75L 49 19.75L 49 27.25L 41.5 27.25ZM 49 27.25L 56.5 27.25L 56.5 34.75L 49 34.75ZM 41.5 48.25L 49 48.25L 49 55.75L 41.5 55.75ZM 41.5 48.25L 49 48.25L 49 55.75L 41.5 55.75ZM 49 19.75L 56.5 19.75L 56.5 27.25L 49 27.25ZM 49 34.75L 56.5 34.75L 56.5 42.25L 49 42.25ZM 26 12.496L 42 12.496"></path></g></g></g><g id="g-root-equa_1lrsbsl1cvhypx-stroke" data-item-order="2000000000" transform="translate(531, 51)"><g id="equa_1lrsbsl1cvhypx-stroke" fill="none" stroke-linecap="round" stroke-linejoin="round" stroke-miterlimit="4" stroke="#ba5de5" stroke-width="2"><g><path d="M 10.9375 19.776251L 39.0625 19.776251M 10.9375 30.223751L 39.0625 30.223751"></path></g></g></g><g id="g-root-thro_hssblh1cvkr9c-stroke" data-item-order="2000000000" transform="translate(291, 249)"><g id="thro_hssblh1cvkr9c-stroke" fill="none" stroke-linecap="round" stroke-linejoin="round" stroke-miterlimit="4" stroke="#e0cb15" stroke-width="2"><g><path d="M 31.599998 28.578571C 32.648605 29.801588 33.146446 31.402905 32.976109 33.004883C 32.805771 34.606861 31.982338 36.067688 30.699999 37.042858C 27.267479 39.385685 22.797852 39.560478 19.192856 37.492855L 17.264286 36.399998M 31.42857 12.828571C 27.142857 10.707143 19.064285 9.442857 17.242857 15.442857C 16.708778 17.231741 17.156622 19.16968 18.421429 20.542856C 20.129465 21.87709 22.001959 22.986183 23.992857 23.842857M 11.071428 23.928572L 38.92857 23.928572"></path></g></g></g><g id="g-root-tx_calculat_m8ltpx1cvkqh3-stroke" data-item-order="2000000000" transform="translate(327, 252)"></g><g id="g-root-nega_deu8qd1cvm60y-stroke" data-item-order="2000000000" transform="translate(237, 51)"><g id="nega_deu8qd1cvm60y-stroke" fill="none" stroke-linecap="round" stroke-linejoin="round" stroke-miterlimit="4" stroke="#4e88e7" stroke-width="2"><g><path d="M 37.799999 19.96875C 40.154099 25.96327 38.027 32.788479 32.684074 36.384197C 27.341148 39.979919 20.217339 39.380447 15.550455 34.942402C 10.883573 30.504356 9.926995 23.419655 13.249774 17.902843C 16.572552 12.386034 23.282291 9.918758 29.387501 11.96875M 18.75 25C 18.75 28.45178 21.548222 31.25 25 31.25C 28.45178 31.25 31.25 28.45178 31.25 25C 31.25 21.548222 28.45178 18.75 25 18.75C 21.548222 18.75 18.75 21.548222 18.75 25M 21.875 25L 28.125 25M 25 21.875L 25 28.125M 31.25 15C 31.25 16.725889 32.649109 18.125 34.375 18.125C 36.100891 18.125 37.5 16.725889 37.5 15C 37.5 13.27411 36.100891 11.875 34.375 11.875C 32.649109 11.875 31.25 13.27411 31.25 15M 33.125 15L 35.494999 15"></path></g></g></g><g id="g-root-tx_selectat_deu8qd1cvm60x-stroke" data-item-order="2000000000" transform="translate(27, 54)"></g></g></g></svg>