<?xml version="1.0" encoding="utf-8" standalone="yes"?>
<!DOCTYPE svg PUBLIC "-//W3C//DTD SVG 1.1//EN" "http://www.w3.org/Graphics/SVG/1.1/DTD/svg11.dtd">
<svg width="482" height="566" viewBox="0 0 482 566" style="fill:none;stroke:none;fill-rule:evenodd;clip-rule:evenodd;stroke-linecap:round;stroke-linejoin:round;stroke-miterlimit:1.5;" version="1.1" xmlns="http://www.w3.org/2000/svg" xmlns:xlink="http://www.w3.org/1999/xlink"><style id="fontImports">@import url("https://fonts.googleapis.com/css2?family=Shantell+Sans:wght@300..800&amp;display=block");</style><rect id="" x="0" y="0" width="482" height="566" style="fill: #ffffff;"></rect><g id="items" style="isolation: isolate"><g id="blend" style="mix-blend-mode:normal"><g id="g-root-tf_i0vm451fxexor-fill" data-item-order="-270720" transform="translate(-9, -9)"><g id="tf_i0vm451fxexor-fill" stroke="none" fill="#ffffff"><g><path d="M 10 10L 490 10L 490 574L 10 574Z"></path></g></g></g><g id="g-root--1.line_sy_zqa7cl1fxc1lb-fill" data-item-order="-82937" transform="translate(378, 326.99609375)"></g><g id="g-root--1.vector_sy_1463ph11fxc1kw-fill" data-item-order="-82935" transform="translate(15, 326.99609375)"></g><g id="g-root-4.cr-big_cr_1463ph11fxc1kx-fill" data-item-order="-82932" transform="translate(339, 350.998046875)"><g id="4.cr-big_cr_1463ph11fxc1kx-fill" stroke="none" fill="#e9ffb9"><g><path d="M 10 46C 10 65.882251 26.117749 82 46 82C 65.882251 82 82 65.882251 82 46C 82 26.117749 65.882251 10 46 10C 26.117749 10 10 26.117749 10 46"></path></g></g></g><g id="g-root-4.cu-smallCircle_sy_vagp851fxc2dm-fill" data-item-order="-82929" transform="translate(372, 324.001953125)"></g><g id="g-root-4.ln_ln_vagp851fxc2dn-fill" data-item-order="-82927" transform="translate(375, 330.001953125)"></g><g id="g-root-3.cr-big_cr_vagp851fxc2do-fill" data-item-order="-82924" transform="translate(243, 231)"><g id="3.cr-big_cr_vagp851fxc2do-fill" stroke="none" fill="#d1f4ff"><g><path d="M 10 46C 10 65.882251 26.117749 82 46 82C 65.882251 82 82 65.882251 82 46C 82 26.117749 65.882251 10 46 10C 26.117749 10 10 26.117749 10 46"></path></g></g></g><g id="g-root-3.cu-smallCircle_sy_qun73p1fxc35x-fill" data-item-order="-82921" transform="translate(276, 323.99609375)"></g><g id="g-root-3.ln_ln_qun73p1fxc35y-fill" data-item-order="-82919" transform="translate(279, 303)"></g><g id="g-root-2.cr-big_cr_qun73p1fxc35z-fill" data-item-order="-82916" transform="translate(147, 351)"><g id="2.cr-big_cr_qun73p1fxc35z-fill" stroke="none" fill="#c8ffe5"><g><path d="M 10 46C 10 65.882251 26.117749 82 46 82C 65.882251 82 82 65.882251 82 46C 82 26.117749 65.882251 10 46 10C 26.117749 10 10 26.117749 10 46"></path></g></g></g><g id="g-root-2.cu-smallCircle_sy_qun73p1fxc360-fill" data-item-order="-82913" transform="translate(180, 324.001953125)"></g><g id="g-root-2.ln_ln_metoz91fxc3y9-fill" data-item-order="-82911" transform="translate(183, 330.001953125)"></g><g id="g-root-1.cr-big_cr_metoz91fxc3ya-fill" data-item-order="-82908" transform="translate(51, 231)"><g id="1.cr-big_cr_metoz91fxc3ya-fill" stroke="none" fill="#dce9ff"><g><path d="M 10 46C 10 65.882251 26.117749 82 46 82C 65.882251 82 82 65.882251 82 46C 82 26.117749 65.882251 10 46 10C 26.117749 10 10 26.117749 10 46"></path></g></g></g><g id="g-root-1.cu-smallCircle_sy_metoz91fxc3yb-fill" data-item-order="-82905" transform="translate(84, 323.99609375)"></g><g id="g-root-1.ln_ln_metoz91fxc3yc-fill" data-item-order="-82903" transform="translate(87, 303)"></g><g id="g-root-tx_formnewd_zs5mlx1fxevbi-fill" data-item-order="0" transform="translate(315, 435)"><g id="tx_formnewd_zs5mlx1fxevbi-fill" stroke="none" fill="#484848"><g><text style="font: 20px &quot;Shantell Sans&quot;, cursive; white-space: pre;" font-size="20px" font-family="'Shantell Sans', cursive"><tspan x="17.32" y="35.5" dominant-baseline="ideographic">Form New </tspan><tspan x="31.09" y="59.5" dominant-baseline="ideographic">Density </tspan><tspan x="34.25" y="83.5" dominant-baseline="ideographic">Matrix</tspan></text></g></g></g><g id="g-root-mole_1czvagl1fxevpe-fill" data-item-order="0" transform="translate(255, 243)"></g><g id="g-root-nega_18n65rp1fxexol-fill" data-item-order="0" transform="translate(63, 243)"></g><g id="g-root-tx_construc_vcc4hh1fxew3t-fill" data-item-order="0" transform="translate(27, 171)"><g id="tx_construc_vcc4hh1fxew3t-fill" stroke="none" fill="#484848"><g><text style="font: 20px &quot;Shantell Sans&quot;, cursive; white-space: pre;" font-size="20px" font-family="'Shantell Sans', cursive"><tspan x="23.69" y="35.5" dominant-baseline="ideographic">Construct </tspan><tspan x="12.41" y="59.5" dominant-baseline="ideographic">Fock Matrix</tspan></text></g></g></g><g id="g-root-tx_solveeig_zs5mlx1fxevbj-fill" data-item-order="0" transform="translate(219, 147)"><g id="tx_solveeig_zs5mlx1fxevbj-fill" stroke="none" fill="#484848"><g><text style="font: 20px &quot;Shantell Sans&quot;, cursive; white-space: pre;" font-size="20px" font-family="'Shantell Sans', cursive"><tspan x="41.45" y="35.5" dominant-baseline="ideographic">Solve </tspan><tspan x="14.59" y="59.5" dominant-baseline="ideographic">Eigenvalue </tspan><tspan x="23.92" y="83.5" dominant-baseline="ideographic">Equation</tspan></text></g></g></g><g id="g-root-shri_9248fp1fxexai-fill" data-item-order="0" transform="translate(159, 363)"></g><g id="g-root-mend_90va9h1fxdgxz-fill" data-item-order="0" transform="translate(351, 363)"></g><g id="g-root-tx_transfor_vcc4hh1fxew3s-fill" data-item-order="0" transform="translate(111, 435)"><g id="tx_transfor_vcc4hh1fxew3s-fill" stroke="none" fill="#484848"><g><text style="font: 20px &quot;Shantell Sans&quot;, cursive; white-space: pre;" font-size="20px" font-family="'Shantell Sans', cursive"><tspan x="16.45" y="35.5" dominant-baseline="ideographic">Transform to </tspan><tspan x="23.29" y="59.5" dominant-baseline="ideographic">Orthogonal </tspan><tspan x="54.28" y="83.5" dominant-baseline="ideographic">Basis</tspan></text></g></g></g><g id="g-root-tx_fockmatr_vcc4hh1fxew3u-fill" data-item-order="0" transform="translate(27, 3)"><g id="tx_fockmatr_vcc4hh1fxew3u-fill" stroke="none" fill="#484848"><g><text style="font: bold 25px &quot;Shantell Sans&quot;, cursive; white-space: pre;" font-weight="bold" font-size="25px" font-family="'Shantell Sans', cursive"><tspan x="12.71" y="41.5" dominant-baseline="ideographic">Fock Matrix Construction and </tspan><tspan x="108.05" y="71.5" dominant-baseline="ideographic">Transformation</tspan></text></g></g></g><g id="g-root-tf_i0vm451fxexor-stroke" data-item-order="-270720" transform="translate(-9, -9)"></g><g id="g-root--1.line_sy_zqa7cl1fxc1lb-stroke" data-item-order="-82937" transform="translate(378, 326.99609375)"><g id="-1.line_sy_zqa7cl1fxc1lb-stroke" fill="none" stroke-linecap="round" stroke-linejoin="round" stroke-miterlimit="4" stroke="#a3a3a3" stroke-width="2"><g><path d="M 77 10.003906L 10 10.003906"></path><path d="M 71 16.503906L 77.5 10.003906L 71 3.503906" stroke-dasharray="none"></path></g></g></g><g id="g-root--1.vector_sy_1463ph11fxc1kw-stroke" data-item-order="-82935" transform="translate(15, 326.99609375)"><g id="-1.vector_sy_1463ph11fxc1kw-stroke" fill="none" stroke-linecap="round" stroke-linejoin="round" stroke-miterlimit="4" stroke="#a3a3a3" stroke-width="2"><g><path d="M 78.9976 10L 10 10M 174.9976 10L 84.9976 10M 271 10L 181 10M 367 10L 277 10"></path></g></g></g><g id="g-root-4.cr-big_cr_1463ph11fxc1kx-stroke" data-item-order="-82932" transform="translate(339, 350.998046875)"><g id="4.cr-big_cr_1463ph11fxc1kx-stroke" fill="none" stroke-linecap="round" stroke-linejoin="round" stroke-miterlimit="4" stroke="#ffffff" stroke-width="2"><g><path d="M 10 46C 10 65.882251 26.117749 82 46 82C 65.882251 82 82 65.882251 82 46C 82 26.117749 65.882251 10 46 10C 26.117749 10 10 26.117749 10 46"></path></g></g></g><g id="g-root-4.cu-smallCircle_sy_vagp851fxc2dm-stroke" data-item-order="-82929" transform="translate(372, 324.001953125)"><g id="4.cu-smallCircle_sy_vagp851fxc2dm-stroke" fill="none" stroke-linecap="round" stroke-linejoin="round" stroke-miterlimit="4" stroke="#a8dd38" stroke-width="2"><g><path d="M 10 13C 10 11.343109 11.343079 10 13 10C 14.656921 10 16 11.343109 16 13C 16 14.656891 14.656921 16 13 16C 11.343079 16 10 14.656891 10 13Z"></path></g></g></g><g id="g-root-4.ln_ln_vagp851fxc2dn-stroke" data-item-order="-82927" transform="translate(375, 330.001953125)"><g id="4.ln_ln_vagp851fxc2dn-stroke" fill="none" stroke-linecap="round" stroke-linejoin="round" stroke-miterlimit="4" stroke="#a8dd38" stroke-width="2"><g><path d="M 10 31L 10 20.5L 10 10"></path></g></g></g><g id="g-root-3.cr-big_cr_vagp851fxc2do-stroke" data-item-order="-82924" transform="translate(243, 231)"><g id="3.cr-big_cr_vagp851fxc2do-stroke" fill="none" stroke-linecap="round" stroke-linejoin="round" stroke-miterlimit="4" stroke="#ffffff" stroke-width="2"><g><path d="M 10 46C 10 65.882251 26.117749 82 46 82C 65.882251 82 82 65.882251 82 46C 82 26.117749 65.882251 10 46 10C 26.117749 10 10 26.117749 10 46"></path></g></g></g><g id="g-root-3.cu-smallCircle_sy_qun73p1fxc35x-stroke" data-item-order="-82921" transform="translate(276, 323.99609375)"><g id="3.cu-smallCircle_sy_qun73p1fxc35x-stroke" fill="none" stroke-linecap="round" stroke-linejoin="round" stroke-miterlimit="4" stroke="#1ac6ff" stroke-width="2"><g><path d="M 16 13C 16 14.6569 14.6569 16 13 16C 11.3431 16 10 14.6569 10 13C 10 11.3431 11.3431 10 13 10C 14.6569 10 16 11.3431 16 13Z"></path></g></g></g><g id="g-root-3.ln_ln_qun73p1fxc35y-stroke" data-item-order="-82919" transform="translate(279, 303)"><g id="3.ln_ln_qun73p1fxc35y-stroke" fill="none" stroke-linecap="round" stroke-linejoin="round" stroke-miterlimit="4" stroke="#1ac6ff" stroke-width="2"><g><path d="M 10 10L 10 20.5L 10 31"></path></g></g></g><g id="g-root-2.cr-big_cr_qun73p1fxc35z-stroke" data-item-order="-82916" transform="translate(147, 351)"><g id="2.cr-big_cr_qun73p1fxc35z-stroke" fill="none" stroke-linecap="round" stroke-linejoin="round" stroke-miterlimit="4" stroke="#ffffff" stroke-width="2"><g><path d="M 10 46C 10 65.882251 26.117749 82 46 82C 65.882251 82 82 65.882251 82 46C 82 26.117749 65.882251 10 46 10C 26.117749 10 10 26.117749 10 46"></path></g></g></g><g id="g-root-2.cu-smallCircle_sy_qun73p1fxc360-stroke" data-item-order="-82913" transform="translate(180, 324.001953125)"><g id="2.cu-smallCircle_sy_qun73p1fxc360-stroke" fill="none" stroke-linecap="round" stroke-linejoin="round" stroke-miterlimit="4" stroke="#44e095" stroke-width="2"><g><path d="M 10 13C 10 11.343109 11.343109 10 13 10C 14.656891 10 16 11.343109 16 13C 16 14.656891 14.656891 16 13 16C 11.343109 16 10 14.656891 10 13Z"></path></g></g></g><g id="g-root-2.ln_ln_metoz91fxc3y9-stroke" data-item-order="-82911" transform="translate(183, 330.001953125)"><g id="2.ln_ln_metoz91fxc3y9-stroke" fill="none" stroke-linecap="round" stroke-linejoin="round" stroke-miterlimit="4" stroke="#44e095" stroke-width="2"><g><path d="M 10 31L 10 20.5L 10 10"></path></g></g></g><g id="g-root-1.cr-big_cr_metoz91fxc3ya-stroke" data-item-order="-82908" transform="translate(51, 231)"><g id="1.cr-big_cr_metoz91fxc3ya-stroke" fill="none" stroke-linecap="round" stroke-linejoin="round" stroke-miterlimit="4" stroke="#ffffff" stroke-width="2"><g><path d="M 10 46C 10 65.882251 26.117749 82 46 82C 65.882251 82 82 65.882251 82 46C 82 26.117749 65.882251 10 46 10C 26.117749 10 10 26.117749 10 46"></path></g></g></g><g id="g-root-1.cu-smallCircle_sy_metoz91fxc3yb-stroke" data-item-order="-82905" transform="translate(84, 323.99609375)"><g id="1.cu-smallCircle_sy_metoz91fxc3yb-stroke" fill="none" stroke-linecap="round" stroke-linejoin="round" stroke-miterlimit="4" stroke="#4f92ff" stroke-width="2"><g><path d="M 16 13C 16 14.6569 14.6569 16 13 16C 11.3431 16 10 14.6569 10 13C 10 11.3431 11.3431 10 13 10C 14.6569 10 16 11.3431 16 13Z"></path></g></g></g><g id="g-root-1.ln_ln_metoz91fxc3yc-stroke" data-item-order="-82903" transform="translate(87, 303)"><g id="1.ln_ln_metoz91fxc3yc-stroke" fill="none" stroke-linecap="round" stroke-linejoin="round" stroke-miterlimit="4" stroke="#4f92ff" stroke-width="2"><g><path d="M 10 10L 10 20.5L 10 31"></path></g></g></g><g id="g-root-tx_formnewd_zs5mlx1fxevbi-stroke" data-item-order="0" transform="translate(315, 435)"></g><g id="g-root-mole_1czvagl1fxevpe-stroke" data-item-order="0" transform="translate(255, 243)"><g id="mole_1czvagl1fxevpe-stroke" fill="none" stroke-linecap="round" stroke-linejoin="round" stroke-miterlimit="4" stroke="#1eabda" stroke-width="2"><g><path d="M 25 34C 25 46.702549 29.029438 57 34 57C 38.970562 57 43 46.702549 43 34C 43 21.297451 38.970562 11 34 11C 29.029438 11 25 21.297451 25 34M 39.099998 41.416C 28.634001 48.616001 17.868 51.130001 15.048 47.034C 12.228 42.938 18.434 33.784 28.9 26.584C 39.365997 19.383999 50.132 16.872 52.952 20.966C 55.771999 25.060001 49.566002 34.216 39.099998 41.416ZM 28.9 41.416C 39.365997 48.616001 50.132 51.130001 52.952 47.034C 55.771999 42.938 49.566002 33.784 39.099998 26.584C 28.634001 19.383999 17.868 16.872 15.048 20.966C 12.228 25.060001 18.434 34.216 28.9 41.416ZM 30 34C 30 36.209137 31.790861 38 34 38C 36.209137 38 38 36.209137 38 34C 38 31.790861 36.209137 30 34 30C 31.790861 30 30 31.790861 30 34"></path></g></g></g><g id="g-root-nega_18n65rp1fxexol-stroke" data-item-order="0" transform="translate(63, 243)"><g id="nega_18n65rp1fxexol-stroke" fill="none" stroke-linecap="round" stroke-linejoin="round" stroke-miterlimit="4" stroke="#4e88e7" stroke-width="2"><g><path d="M 54.48 25.950001C 58.246555 35.541233 54.843201 46.461567 46.294518 52.214718C 37.745834 57.967869 26.34774 57.008717 18.880728 49.907845C 11.413715 42.806969 9.883193 31.471447 15.199638 22.64455C 20.516083 13.817654 31.251665 9.870013 41.02 13.15M 24 34C 24 39.52285 28.477154 44 34 44C 39.52285 44 44 39.52285 44 34C 44 28.477154 39.52285 24 34 24C 28.477154 24 24 28.477154 24 34M 29 34L 39 34M 34 29L 34 39M 44 18C 44 20.761425 46.238575 23 49 23C 51.761425 23 54 20.761425 54 18C 54 15.238577 51.761425 13 49 13C 46.238575 13 44 15.238577 44 18M 47 18L 50.792 18"></path></g></g></g><g id="g-root-tx_construc_vcc4hh1fxew3t-stroke" data-item-order="0" transform="translate(27, 171)"></g><g id="g-root-tx_solveeig_zs5mlx1fxevbj-stroke" data-item-order="0" transform="translate(219, 147)"></g><g id="g-root-shri_9248fp1fxexai-stroke" data-item-order="0" transform="translate(159, 363)"><g id="shri_9248fp1fxexai-stroke" fill="none" stroke-linecap="round" stroke-linejoin="round" stroke-miterlimit="4" stroke="#3cc583" stroke-width="2"><g><path d="M 28.440001 31.1L 46.439999 31.1C 46.443455 23.398548 41.269096 16.656826 33.828701 14.668629C 26.388309 12.680431 18.540771 15.942483 14.702161 22.619118C 10.863551 29.295752 11.992896 37.718899 17.454674 43.148571C 22.916454 48.578243 31.346113 49.657906 38 45.779999ZM 46.439999 31.1L 50.439999 31.1M 50.439999 31.1C 50.440002 32.756855 51.783146 34.099998 53.440002 34.099998C 55.096855 34.099998 56.440002 32.756855 56.440002 31.1C 56.440002 29.443146 55.096855 28.1 53.440002 28.1C 51.783146 28.1 50.440002 29.443146 50.440002 31.1M 38.02 45.779999L 40.040001 49.240002M 44.540001 51.82C 44.540001 53.476856 43.196854 54.82 41.540001 54.82C 39.883148 54.82 38.540001 53.476856 38.540001 51.82C 38.540001 50.163147 39.883148 48.82 41.540001 48.82C 43.196854 48.82 44.540001 50.163147 44.540001 51.82ZM 44.439999 11.1C 47.928383 13.683547 50.685211 17.129581 52.440002 21.1M 44.439999 16.1L 44.439999 11.1L 49.439999 11.1M 22.52 55.119999C 18.361628 53.926662 14.584822 51.672985 11.559999 48.579998M 20.74 50.459999L 22.52 55.119999L 17.84 56.900002"></path></g></g></g><g id="g-root-mend_90va9h1fxdgxz-stroke" data-item-order="0" transform="translate(351, 363)"><g id="mend_90va9h1fxdgxz-stroke" fill="none" stroke-linecap="round" stroke-linejoin="round" stroke-miterlimit="4" stroke="#92bd39" stroke-width="2"><g><path d="M 13 11L 55 11C 55 11 57 11 57 13L 57 55C 57 55 57 57 55 57L 13 57C 13 57 11 57 11 55L 11 13C 11 13 11 11 13 11M 24 48L 44 48M 20.25 43.004002L 20.25 25.9C 20.25 25.403999 20.65 25.001999 21.146 25.001999L 21.146 25.001999C 21.511278 25.002531 21.840008 25.223789 21.978001 25.562L 26.483999 36.655998C 26.569328 36.866058 26.773275 37.003605 27.000002 37.004002L 27 37.003998C 27.226728 37.003605 27.430674 36.866058 27.516001 36.656002L 32.021999 25.562C 32.159103 25.223068 32.488388 25.001434 32.854004 25.002001L 32.854 25.001999C 33.348 25.001999 33.75 25.403999 33.75 25.9L 33.75 43.004002M 46.5 43L 46.5 25M 46.5 37.5C 46.5 35.014717 44.485283 33 42 33C 39.514717 33 37.5 35.014717 37.5 37.5L 37.5 38.5C 37.5 40.985283 39.514717 43 42 43C 44.485283 43 46.5 40.985283 46.5 38.5L 46.5 37.5Z"></path></g></g></g><g id="g-root-tx_transfor_vcc4hh1fxew3s-stroke" data-item-order="0" transform="translate(111, 435)"></g><g id="g-root-tx_fockmatr_vcc4hh1fxew3u-stroke" data-item-order="0" transform="translate(27, 3)"></g></g></g></svg>